<svg width="5760" height="720" viewBox="0 0 5760 720" fill="none" xmlns="http://www.w3.org/2000/svg">
<path fill-rule="evenodd" clip-rule="evenodd" d="M2880 360H2970V270H2880V360ZM3060 270H2970V180H2880V90H2970V9.53674e-06H3060V90H3150V9.53674e-06H3240V90H3150V180H3240V270H3150V360H3060V270ZM3060 180H3150V270H3060V180ZM3060 180V90H2970V180H3060Z" fill="url(#paint0_linear_841_36)"/>
<path fill-rule="evenodd" clip-rule="evenodd" d="M2880 720H2970V630H2880V720ZM3060 630H2970V540H2880V450H2970V360H3060V450H3150V360H3240V450H3150V540H3240V630H3150V720H3060V630ZM3060 540H3150V630H3060V540ZM3060 540V450H2970V540H3060Z" fill="url(#paint1_linear_841_36)"/>
<path fill-rule="evenodd" clip-rule="evenodd" d="M3600 360H3690V270H3600V360ZM3780 270H3690V180H3600V90H3690V9.53674e-06H3780V90H3870V9.53674e-06H3960V90H3870V180H3960V270H3870V360H3780V270ZM3780 180H3870V270H3780V180ZM3780 180V90H3690V180H3780Z" fill="url(#paint2_linear_841_36)"/>
<path fill-rule="evenodd" clip-rule="evenodd" d="M3600 720H3690V630H3600V720ZM3780 630H3690V540H3600V450H3690V360H3780V450H3870V360H3960V450H3870V540H3960V630H3870V720H3780V630ZM3780 540H3870V630H3780V540ZM3780 540V450H3690V540H3780Z" fill="url(#paint3_linear_841_36)"/>
<path fill-rule="evenodd" clip-rule="evenodd" d="M4320 360H4410V270H4320V360ZM4500 270H4410V180H4320V90H4410V9.53674e-06H4500V90H4590V9.53674e-06H4680V90H4590V180H4680V270H4590V360H4500V270ZM4500 180H4590V270H4500V180ZM4500 180V90H4410V180H4500Z" fill="url(#paint4_linear_841_36)"/>
<path fill-rule="evenodd" clip-rule="evenodd" d="M4320 720H4410V630H4320V720ZM4500 630H4410V540H4320V450H4410V360H4500V450H4590V360H4680V450H4590V540H4680V630H4590V720H4500V630ZM4500 540H4590V630H4500V540ZM4500 540V450H4410V540H4500Z" fill="url(#paint5_linear_841_36)"/>
<path fill-rule="evenodd" clip-rule="evenodd" d="M5040 360H5130V270H5040V360ZM5220 270H5130V180H5040V90H5130V9.53674e-06H5220V90H5310V9.53674e-06H5400V90H5310V180H5400V270H5310V360H5220V270ZM5220 180H5310V270H5220V180ZM5220 180V90H5130V180H5220Z" fill="url(#paint6_linear_841_36)"/>
<path fill-rule="evenodd" clip-rule="evenodd" d="M5040 720H5130V630H5040V720ZM5220 630H5130V540H5040V450H5130V360H5220V450H5310V360H5400V450H5310V540H5400V630H5310V720H5220V630ZM5220 540H5310V630H5220V540ZM5220 540V450H5130V540H5220Z" fill="url(#paint7_linear_841_36)"/>
<path fill-rule="evenodd" clip-rule="evenodd" d="M3240 360H3330V270H3240V360ZM3420 270H3330V180H3240V90H3330V9.53674e-06H3420V90H3510V9.53674e-06H3600V90H3510V180H3600V270H3510V360H3420V270ZM3420 180H3510V270H3420V180ZM3420 180V90H3330V180H3420Z" fill="url(#paint8_linear_841_36)"/>
<path fill-rule="evenodd" clip-rule="evenodd" d="M3240 720H3330V630H3240V720ZM3420 630H3330V540H3240V450H3330V360H3420V450H3510V360H3600V450H3510V540H3600V630H3510V720H3420V630ZM3420 540H3510V630H3420V540ZM3420 540V450H3330V540H3420Z" fill="url(#paint9_linear_841_36)"/>
<path fill-rule="evenodd" clip-rule="evenodd" d="M3960 360H4050V270H3960V360ZM4140 270H4050V180H3960V90H4050V9.53674e-06H4140V90H4230V9.53674e-06H4320V90H4230V180H4320V270H4230V360H4140V270ZM4140 180H4230V270H4140V180ZM4140 180V90H4050V180H4140Z" fill="url(#paint10_linear_841_36)"/>
<path fill-rule="evenodd" clip-rule="evenodd" d="M3960 720H4050V630H3960V720ZM4140 630H4050V540H3960V450H4050V360H4140V450H4230V360H4320V450H4230V540H4320V630H4230V720H4140V630ZM4140 540H4230V630H4140V540ZM4140 540V450H4050V540H4140Z" fill="url(#paint11_linear_841_36)"/>
<path fill-rule="evenodd" clip-rule="evenodd" d="M4680 360H4770V270H4680V360ZM4860 270H4770V180H4680V90H4770V9.53674e-06H4860V90H4950V9.53674e-06H5040V90H4950V180H5040V270H4950V360H4860V270ZM4860 180H4950V270H4860V180ZM4860 180V90H4770V180H4860Z" fill="url(#paint12_linear_841_36)"/>
<path fill-rule="evenodd" clip-rule="evenodd" d="M4680 720H4770V630H4680V720ZM4860 630H4770V540H4680V450H4770V360H4860V450H4950V360H5040V450H4950V540H5040V630H4950V720H4860V630ZM4860 540H4950V630H4860V540ZM4860 540V450H4770V540H4860Z" fill="url(#paint13_linear_841_36)"/>
<path fill-rule="evenodd" clip-rule="evenodd" d="M5400 360H5490V270H5400V360ZM5580 270H5490V180H5400V90H5490V9.53674e-06H5580V90H5670V9.53674e-06H5760V90H5670V180H5760V270H5670V360H5580V270ZM5580 180H5670V270H5580V180ZM5580 180V90H5490V180H5580Z" fill="url(#paint14_linear_841_36)"/>
<path fill-rule="evenodd" clip-rule="evenodd" d="M5400 720H5490V630H5400V720ZM5580 630H5490V540H5400V450H5490V360H5580V450H5670V360H5760V450H5670V540H5760V630H5670V720H5580V630ZM5580 540H5670V630H5580V540ZM5580 540V450H5490V540H5580Z" fill="url(#paint15_linear_841_36)"/>
<path fill-rule="evenodd" clip-rule="evenodd" d="M0 360H90V270H0V360ZM180 270H90V180H0V90H90V9.53674e-06H180V90H270V9.53674e-06H360V90H270V180H360V270H270V360H180V270ZM180 180H270V270H180V180ZM180 180V90H90V180H180Z" fill="url(#paint16_linear_841_36)"/>
<path fill-rule="evenodd" clip-rule="evenodd" d="M0 720H90V630H0V720ZM180 630H90V540H0V450H90V360H180V450H270V360H360V450H270V540H360V630H270V720H180V630ZM180 540H270V630H180V540ZM180 540V450H90V540H180Z" fill="url(#paint17_linear_841_36)"/>
<path fill-rule="evenodd" clip-rule="evenodd" d="M720 360H810V270H720V360ZM900 270H810V180H720V90H810V9.53674e-06H900V90H990V9.53674e-06H1080V90H990V180H1080V270H990V360H900V270ZM900 180H990V270H900V180ZM900 180V90H810V180H900Z" fill="url(#paint18_linear_841_36)"/>
<path fill-rule="evenodd" clip-rule="evenodd" d="M720 720H810V630H720V720ZM900 630H810V540H720V450H810V360H900V450H990V360H1080V450H990V540H1080V630H990V720H900V630ZM900 540H990V630H900V540ZM900 540V450H810V540H900Z" fill="url(#paint19_linear_841_36)"/>
<path fill-rule="evenodd" clip-rule="evenodd" d="M1440 360H1530V270H1440V360ZM1620 270H1530V180H1440V90H1530V9.53674e-06H1620V90H1710V9.53674e-06H1800V90H1710V180H1800V270H1710V360H1620V270ZM1620 180H1710V270H1620V180ZM1620 180V90H1530V180H1620Z" fill="url(#paint20_linear_841_36)"/>
<path fill-rule="evenodd" clip-rule="evenodd" d="M1440 720H1530V630H1440V720ZM1620 630H1530V540H1440V450H1530V360H1620V450H1710V360H1800V450H1710V540H1800V630H1710V720H1620V630ZM1620 540H1710V630H1620V540ZM1620 540V450H1530V540H1620Z" fill="url(#paint21_linear_841_36)"/>
<path fill-rule="evenodd" clip-rule="evenodd" d="M2160 360H2250V270H2160V360ZM2340 270H2250V180H2160V90H2250V9.53674e-06H2340V90H2430V9.53674e-06H2520V90H2430V180H2520V270H2430V360H2340V270ZM2340 180H2430V270H2340V180ZM2340 180V90H2250V180H2340Z" fill="url(#paint22_linear_841_36)"/>
<path fill-rule="evenodd" clip-rule="evenodd" d="M2160 720H2250V630H2160V720ZM2340 630H2250V540H2160V450H2250V360H2340V450H2430V360H2520V450H2430V540H2520V630H2430V720H2340V630ZM2340 540H2430V630H2340V540ZM2340 540V450H2250V540H2340Z" fill="url(#paint23_linear_841_36)"/>
<path fill-rule="evenodd" clip-rule="evenodd" d="M360 360H450V270H360V360ZM540 270H450V180H360V90H450V9.53674e-06H540V90H630V9.53674e-06H720V90H630V180H720V270H630V360H540V270ZM540 180H630V270H540V180ZM540 180V90H450V180H540Z" fill="url(#paint24_linear_841_36)"/>
<path fill-rule="evenodd" clip-rule="evenodd" d="M360 720H450V630H360V720ZM540 630H450V540H360V450H450V360H540V450H630V360H720V450H630V540H720V630H630V720H540V630ZM540 540H630V630H540V540ZM540 540V450H450V540H540Z" fill="url(#paint25_linear_841_36)"/>
<path fill-rule="evenodd" clip-rule="evenodd" d="M1080 360H1170V270H1080V360ZM1260 270H1170V180H1080V90H1170V9.53674e-06H1260V90H1350V9.53674e-06H1440V90H1350V180H1440V270H1350V360H1260V270ZM1260 180H1350V270H1260V180ZM1260 180V90H1170V180H1260Z" fill="url(#paint26_linear_841_36)"/>
<path fill-rule="evenodd" clip-rule="evenodd" d="M1080 720H1170V630H1080V720ZM1260 630H1170V540H1080V450H1170V360H1260V450H1350V360H1440V450H1350V540H1440V630H1350V720H1260V630ZM1260 540H1350V630H1260V540ZM1260 540V450H1170V540H1260Z" fill="url(#paint27_linear_841_36)"/>
<path fill-rule="evenodd" clip-rule="evenodd" d="M1800 360H1890V270H1800V360ZM1980 270H1890V180H1800V90H1890V9.53674e-06H1980V90H2070V9.53674e-06H2160V90H2070V180H2160V270H2070V360H1980V270ZM1980 180H2070V270H1980V180ZM1980 180V90H1890V180H1980Z" fill="url(#paint28_linear_841_36)"/>
<path fill-rule="evenodd" clip-rule="evenodd" d="M1800 720H1890V630H1800V720ZM1980 630H1890V540H1800V450H1890V360H1980V450H2070V360H2160V450H2070V540H2160V630H2070V720H1980V630ZM1980 540H2070V630H1980V540ZM1980 540V450H1890V540H1980Z" fill="url(#paint29_linear_841_36)"/>
<path fill-rule="evenodd" clip-rule="evenodd" d="M2520 360H2610V270H2520V360ZM2700 270H2610V180H2520V90H2610V9.53674e-06H2700V90H2790V9.53674e-06H2880V90H2790V180H2880V270H2790V360H2700V270ZM2700 180H2790V270H2700V180ZM2700 180V90H2610V180H2700Z" fill="url(#paint30_linear_841_36)"/>
<path fill-rule="evenodd" clip-rule="evenodd" d="M2520 720H2610V630H2520V720ZM2700 630H2610V540H2520V450H2610V360H2700V450H2790V360H2880V450H2790V540H2880V630H2790V720H2700V630ZM2700 540H2790V630H2700V540ZM2700 540V450H2610V540H2700Z" fill="url(#paint31_linear_841_36)"/>
<defs>
<linearGradient id="paint0_linear_841_36" x1="3060" y1="360" x2="3060" y2="0" gradientUnits="userSpaceOnUse">
<stop stop-color="#4D93FB"/>
<stop offset="0.955" stop-color="#124FA9"/>
</linearGradient>
<linearGradient id="paint1_linear_841_36" x1="3060" y1="720" x2="3060" y2="360" gradientUnits="userSpaceOnUse">
<stop offset="0.045" stop-color="#FDFDFD"/>
<stop offset="1" stop-color="#4D93FB"/>
</linearGradient>
<linearGradient id="paint2_linear_841_36" x1="3780" y1="360" x2="3780" y2="0" gradientUnits="userSpaceOnUse">
<stop stop-color="#4D93FB"/>
<stop offset="0.955" stop-color="#124FA9"/>
</linearGradient>
<linearGradient id="paint3_linear_841_36" x1="3780" y1="720" x2="3780" y2="360" gradientUnits="userSpaceOnUse">
<stop offset="0.045" stop-color="#FDFDFD"/>
<stop offset="1" stop-color="#4D93FB"/>
</linearGradient>
<linearGradient id="paint4_linear_841_36" x1="4500" y1="360" x2="4500" y2="0" gradientUnits="userSpaceOnUse">
<stop stop-color="#4D93FB"/>
<stop offset="0.955" stop-color="#124FA9"/>
</linearGradient>
<linearGradient id="paint5_linear_841_36" x1="4500" y1="720" x2="4500" y2="360" gradientUnits="userSpaceOnUse">
<stop offset="0.045" stop-color="#FDFDFD"/>
<stop offset="1" stop-color="#4D93FB"/>
</linearGradient>
<linearGradient id="paint6_linear_841_36" x1="5220" y1="360" x2="5220" y2="0" gradientUnits="userSpaceOnUse">
<stop stop-color="#4D93FB"/>
<stop offset="0.955" stop-color="#124FA9"/>
</linearGradient>
<linearGradient id="paint7_linear_841_36" x1="5220" y1="720" x2="5220" y2="360" gradientUnits="userSpaceOnUse">
<stop offset="0.045" stop-color="#FDFDFD"/>
<stop offset="1" stop-color="#4D93FB"/>
</linearGradient>
<linearGradient id="paint8_linear_841_36" x1="3420" y1="360" x2="3420" y2="0" gradientUnits="userSpaceOnUse">
<stop stop-color="#4D93FB"/>
<stop offset="0.955" stop-color="#124FA9"/>
</linearGradient>
<linearGradient id="paint9_linear_841_36" x1="3420" y1="720" x2="3420" y2="360" gradientUnits="userSpaceOnUse">
<stop offset="0.045" stop-color="#FDFDFD"/>
<stop offset="1" stop-color="#4D93FB"/>
</linearGradient>
<linearGradient id="paint10_linear_841_36" x1="4140" y1="360" x2="4140" y2="0" gradientUnits="userSpaceOnUse">
<stop stop-color="#4D93FB"/>
<stop offset="0.955" stop-color="#124FA9"/>
</linearGradient>
<linearGradient id="paint11_linear_841_36" x1="4140" y1="720" x2="4140" y2="360" gradientUnits="userSpaceOnUse">
<stop offset="0.045" stop-color="#FDFDFD"/>
<stop offset="1" stop-color="#4D93FB"/>
</linearGradient>
<linearGradient id="paint12_linear_841_36" x1="4860" y1="360" x2="4860" y2="0" gradientUnits="userSpaceOnUse">
<stop stop-color="#4D93FB"/>
<stop offset="0.955" stop-color="#124FA9"/>
</linearGradient>
<linearGradient id="paint13_linear_841_36" x1="4860" y1="720" x2="4860" y2="360" gradientUnits="userSpaceOnUse">
<stop offset="0.045" stop-color="#FDFDFD"/>
<stop offset="1" stop-color="#4D93FB"/>
</linearGradient>
<linearGradient id="paint14_linear_841_36" x1="5580" y1="360" x2="5580" y2="0" gradientUnits="userSpaceOnUse">
<stop stop-color="#4D93FB"/>
<stop offset="0.955" stop-color="#124FA9"/>
</linearGradient>
<linearGradient id="paint15_linear_841_36" x1="5580" y1="720" x2="5580" y2="360" gradientUnits="userSpaceOnUse">
<stop offset="0.045" stop-color="#FDFDFD"/>
<stop offset="1" stop-color="#4D93FB"/>
</linearGradient>
<linearGradient id="paint16_linear_841_36" x1="180" y1="360" x2="180" y2="0" gradientUnits="userSpaceOnUse">
<stop stop-color="#4D93FB"/>
<stop offset="0.955" stop-color="#124FA9"/>
</linearGradient>
<linearGradient id="paint17_linear_841_36" x1="180" y1="720" x2="180" y2="360" gradientUnits="userSpaceOnUse">
<stop offset="0.045" stop-color="#FDFDFD"/>
<stop offset="1" stop-color="#4D93FB"/>
</linearGradient>
<linearGradient id="paint18_linear_841_36" x1="900" y1="360" x2="900" y2="0" gradientUnits="userSpaceOnUse">
<stop stop-color="#4D93FB"/>
<stop offset="0.955" stop-color="#124FA9"/>
</linearGradient>
<linearGradient id="paint19_linear_841_36" x1="900" y1="720" x2="900" y2="360" gradientUnits="userSpaceOnUse">
<stop offset="0.045" stop-color="#FDFDFD"/>
<stop offset="1" stop-color="#4D93FB"/>
</linearGradient>
<linearGradient id="paint20_linear_841_36" x1="1620" y1="360" x2="1620" y2="0" gradientUnits="userSpaceOnUse">
<stop stop-color="#4D93FB"/>
<stop offset="0.955" stop-color="#124FA9"/>
</linearGradient>
<linearGradient id="paint21_linear_841_36" x1="1620" y1="720" x2="1620" y2="360" gradientUnits="userSpaceOnUse">
<stop offset="0.045" stop-color="#FDFDFD"/>
<stop offset="1" stop-color="#4D93FB"/>
</linearGradient>
<linearGradient id="paint22_linear_841_36" x1="2340" y1="360" x2="2340" y2="0" gradientUnits="userSpaceOnUse">
<stop stop-color="#4D93FB"/>
<stop offset="0.955" stop-color="#124FA9"/>
</linearGradient>
<linearGradient id="paint23_linear_841_36" x1="2340" y1="720" x2="2340" y2="360" gradientUnits="userSpaceOnUse">
<stop offset="0.045" stop-color="#FDFDFD"/>
<stop offset="1" stop-color="#4D93FB"/>
</linearGradient>
<linearGradient id="paint24_linear_841_36" x1="540" y1="360" x2="540" y2="0" gradientUnits="userSpaceOnUse">
<stop stop-color="#4D93FB"/>
<stop offset="0.955" stop-color="#124FA9"/>
</linearGradient>
<linearGradient id="paint25_linear_841_36" x1="540" y1="720" x2="540" y2="360" gradientUnits="userSpaceOnUse">
<stop offset="0.045" stop-color="#FDFDFD"/>
<stop offset="1" stop-color="#4D93FB"/>
</linearGradient>
<linearGradient id="paint26_linear_841_36" x1="1260" y1="360" x2="1260" y2="0" gradientUnits="userSpaceOnUse">
<stop stop-color="#4D93FB"/>
<stop offset="0.955" stop-color="#124FA9"/>
</linearGradient>
<linearGradient id="paint27_linear_841_36" x1="1260" y1="720" x2="1260" y2="360" gradientUnits="userSpaceOnUse">
<stop offset="0.045" stop-color="#FDFDFD"/>
<stop offset="1" stop-color="#4D93FB"/>
</linearGradient>
<linearGradient id="paint28_linear_841_36" x1="1980" y1="360" x2="1980" y2="0" gradientUnits="userSpaceOnUse">
<stop stop-color="#4D93FB"/>
<stop offset="0.955" stop-color="#124FA9"/>
</linearGradient>
<linearGradient id="paint29_linear_841_36" x1="1980" y1="720" x2="1980" y2="360" gradientUnits="userSpaceOnUse">
<stop offset="0.045" stop-color="#FDFDFD"/>
<stop offset="1" stop-color="#4D93FB"/>
</linearGradient>
<linearGradient id="paint30_linear_841_36" x1="2700" y1="360" x2="2700" y2="0" gradientUnits="userSpaceOnUse">
<stop stop-color="#4D93FB"/>
<stop offset="0.955" stop-color="#124FA9"/>
</linearGradient>
<linearGradient id="paint31_linear_841_36" x1="2700" y1="720" x2="2700" y2="360" gradientUnits="userSpaceOnUse">
<stop offset="0.045" stop-color="#FDFDFD"/>
<stop offset="1" stop-color="#4D93FB"/>
</linearGradient>
</defs>
</svg>
