<svg width="342" height="181" viewBox="0 0 342 181" fill="none" xmlns="http://www.w3.org/2000/svg">
<path d="M341.468 91.512L334.005 81.54L190.199 47.705L192.258 58.132L341.468 91.512Z" fill="url(#paint0_linear_668_59)"/>
<path d="M341.468 91.512L334.005 81.54L190.199 47.705L192.258 58.132L341.468 91.512Z" fill="url(#paint1_linear_668_59)"/>
<path d="M340.78 90.592L192.1 57.33L192.258 58.132L341.468 91.512L340.78 90.592Z" fill="url(#paint2_linear_668_59)"/>
<path d="M231.46 141.053L237.086 148.571L224.214 180.465L219.74 170.648L231.46 141.053Z" fill="url(#paint3_linear_668_59)"/>
<path d="M224.212 180.465L237.084 148.571L236.395 147.65L223.65 179.231L224.212 180.465Z" fill="url(#paint4_linear_668_59)"/>
<path d="M0.529297 0.562012C38.4903 96.379 158.067 98.8 215.114 81.956C209.142 74.936 192.257 58.132 192.257 58.132L341.467 91.513L224.212 180.465L236.377 149.783C32.3683 162.716 0.529297 0.562012 0.529297 0.562012Z" fill="url(#paint5_radial_668_59)"/>
<path d="M215.115 81.956C213.517 80.078 211.135 77.497 208.507 74.727C152.313 88.397 39.3223 84.182 0.529297 0.562012C38.4913 96.379 158.068 98.8 215.115 81.956Z" fill="url(#paint6_linear_668_59)"/>
<path d="M0.529297 0.562012C38.4903 96.379 158.067 98.8 215.114 81.956C155.106 95.272 40.1803 95.833 0.529297 0.562012Z" fill="url(#paint7_linear_668_59)"/>
<defs>
<linearGradient id="paint0_linear_668_59" x1="226.329" y1="20.6636" x2="301.656" y2="121.309" gradientUnits="userSpaceOnUse">
<stop stop-color="#0066FF"/>
<stop offset="1" stop-color="#002255"/>
</linearGradient>
<linearGradient id="paint1_linear_668_59" x1="226.329" y1="20.6636" x2="301.656" y2="121.309" gradientUnits="userSpaceOnUse">
<stop stop-color="#0040A1"/>
<stop offset="0.3202" stop-color="#0066FF"/>
<stop offset="0.6601" stop-color="#9FC5FF"/>
<stop offset="1" stop-color="#0066FF"/>
</linearGradient>
<linearGradient id="paint2_linear_668_59" x1="256.272" y1="38.5776" x2="277.226" y2="110.285" gradientUnits="userSpaceOnUse">
<stop stop-color="#82ADEE"/>
<stop offset="0.5566" stop-color="#D5E5FF"/>
<stop offset="0.7931" stop-color="white"/>
<stop offset="1" stop-color="#82ADEE"/>
</linearGradient>
<linearGradient id="paint3_linear_668_59" x1="219.685" y1="149.866" x2="235.99" y2="171.652" gradientUnits="userSpaceOnUse">
<stop stop-color="#003380"/>
<stop offset="1" stop-color="#0044AA"/>
</linearGradient>
<linearGradient id="paint4_linear_668_59" x1="226.467" y1="150.552" x2="234.343" y2="177.505" gradientUnits="userSpaceOnUse">
<stop stop-color="#82ADEE"/>
<stop offset="0.5566" stop-color="#D5E5FF"/>
<stop offset="0.7931" stop-color="white"/>
<stop offset="1" stop-color="#82ADEE"/>
</linearGradient>
<radialGradient id="paint5_radial_668_59" cx="0" cy="0" r="1" gradientUnits="userSpaceOnUse" gradientTransform="translate(225.32 -185.117) rotate(53.1874) scale(546.395 546.395)">
<stop offset="0.2938" stop-color="#0055D4"/>
<stop offset="0.5764" stop-color="#80B3FF"/>
<stop offset="0.5772" stop-color="#5599FF"/>
<stop offset="0.6979" stop-color="#0055D4"/>
</radialGradient>
<linearGradient id="paint6_linear_668_59" x1="47.8702" y1="-34.8692" x2="163.961" y2="120.242" gradientUnits="userSpaceOnUse">
<stop stop-color="#2A7FFF"/>
<stop offset="0.1937" stop-color="#297CFC"/>
<stop offset="0.3608" stop-color="#2674F1"/>
<stop offset="0.5181" stop-color="#2166DF"/>
<stop offset="0.6694" stop-color="#1953C6"/>
<stop offset="0.8165" stop-color="#0F3AA6"/>
<stop offset="0.9584" stop-color="#041B7F"/>
<stop offset="1" stop-color="#001172"/>
</linearGradient>
<linearGradient id="paint7_linear_668_59" x1="19.9277" y1="66.9436" x2="195.718" y2="15.5747" gradientUnits="userSpaceOnUse">
<stop stop-color="#0357D5"/>
<stop offset="0.7931" stop-color="#D5E5FF"/>
<stop offset="1" stop-color="#82ADEE"/>
</linearGradient>
</defs>
</svg>
