<svg width="160" height="385" viewBox="0 0 160 385" fill="none" xmlns="http://www.w3.org/2000/svg">
<path d="M91.4803 316.632C94.0553 324.661 97.0323 332.297 94.4863 338.787C93.1813 342.112 92.9243 348.593 99.0073 352.217C104.207 355.314 110.068 354.874 115.472 357.993C117.758 359.312 119.865 360.986 122.066 362.451C125.107 364.476 128.264 366.372 131.639 367.724C134.805 368.993 138.164 370.392 141.602 370.399C143.717 370.403 146.691 369.876 147.498 367.823L148.113 367.725C148.672 367.916 149.209 367.929 149.729 367.886C150.402 367.832 150.977 367.589 151.502 367.09C151.502 367.09 152.658 366.885 152.829 366.866C153.961 366.738 154.528 366.095 154.94 365.176C155.531 364.994 156.363 364.136 156.549 363.575C157.399 361.015 155.51 358.703 153.725 357.205C152.848 356.469 151.898 355.831 150.921 355.25C144.222 351.265 132.431 339.689 128.531 335.284C125.021 331.32 121.838 323.609 120.657 312.839C118.72 300.459 110.507 223.468 107.398 203.808C104.289 184.148 97.2873 155.169 88.1313 119.175L34.6983 116.595L32.8683 157.989L70.7993 229.608C72.6633 274.14 89.9163 312.3 91.4803 316.632Z" fill="#FDCECA"/>
<path d="M89.4903 108.662L90.4283 116.93C95.8943 133.546 99.8873 146.523 105.943 175.956C109.43 192.903 110.799 210.32 113.791 234.481C116.251 254.341 121.793 309.469 121.793 309.469C121.793 309.469 107.32 320.598 83.9233 316.81C70.1413 278.572 67.7033 250.656 65.5263 229.353L29.3263 158.408L34.1703 104.005L89.4903 108.662Z" fill="#3F7FE1"/>
<path d="M66.0623 194.516C71.9823 217.022 74.4113 227.355 74.6813 243.496C75.1423 271.011 91.7823 317.566 91.7823 317.566" stroke="#303030" stroke-width="1.5" stroke-miterlimit="10" stroke-linecap="round" stroke-linejoin="round"/>
<path d="M104.436 329.636C103.777 324.011 106.788 321.616 112.339 320.29C117.89 318.964 121.794 317.821 124.086 320.156C125.355 321.45 125.919 325.592 129.481 331.6C131.665 335.283 140.56 342.393 146.064 346.027C151.871 349.861 154.575 351.268 157.543 354.702C160.228 357.809 159.023 365.578 159.023 365.578C159.023 365.578 150.007 373.935 136.472 372.177C122.765 370.397 122.067 362.449 112.656 359.236C108.174 357.706 96.8873 354.87 93.3983 350.583C91.9753 343.895 92.5163 338.383 92.3383 333.822C92.1403 328.753 89.9503 323.893 93.6673 323.399L94.3303 325.905C94.3303 325.905 98.8603 327.099 101.031 327.457C103.447 327.857 104.436 329.636 104.436 329.636Z" fill="#F55571"/>
<path d="M136.472 372.178C122.765 370.398 122.067 362.45 112.656 359.237C108.174 357.707 96.8873 354.871 93.3983 350.584V355.65C93.3983 357.62 94.3293 359.492 95.9303 360.532C100.701 363.632 107.497 364.322 111.178 365.579C120.589 368.792 121.946 377.075 135.653 378.856C143.387 379.861 152.238 377.322 155.598 374.945C160.019 371.816 159.023 365.58 159.023 365.58C159.023 365.58 150.007 373.936 136.472 372.178Z" fill="white" stroke="#303030" stroke-width="1.5" stroke-miterlimit="10" stroke-linecap="round" stroke-linejoin="round"/>
<path d="M103.706 328.914C106.296 334.092 110.296 338.303 114.654 342.042C117.118 344.156 119.683 346.148 122.243 348.143C122.905 348.659 123.567 349.175 124.228 349.692C124.827 350.161 125.479 350.62 125.943 351.232C127.009 352.641 126.231 354.232 125.482 355.584C124.575 357.223 123.763 358.847 123.326 360.682C122.891 362.511 122.769 364.406 122.968 366.275C123.069 367.225 124.57 367.235 124.468 366.275C124.282 364.535 124.367 362.785 124.772 361.081C125.162 359.443 125.854 357.987 126.672 356.527C127.421 355.189 128.192 353.694 127.929 352.112C127.655 350.464 126.34 349.453 125.105 348.488C120.101 344.575 114.899 340.773 110.569 336.093C108.36 333.705 106.458 331.069 105.001 328.156C104.569 327.293 103.275 328.052 103.706 328.914Z" fill="#303030"/>
<path d="M125.721 357.67C129.935 359.627 134.713 360.209 139.321 359.988C143.465 359.79 147.854 359.018 151.531 357.005C152.946 356.231 154.389 355.17 155.112 353.683C155.532 352.818 154.239 352.057 153.817 352.926C153.255 354.082 152.192 354.89 151.096 355.529C149.593 356.405 147.936 356.991 146.261 357.438C142.121 358.542 137.705 358.81 133.455 358.282C131.065 357.985 128.668 357.392 126.478 356.375C125.608 355.971 124.845 357.263 125.721 357.67Z" fill="#303030"/>
<path d="M145.309 343.868C139.174 342.487 132.568 343.983 127.531 347.725C126.083 348.801 124.771 350.032 123.624 351.427C123.016 352.167 124.071 353.234 124.685 352.488C129.498 346.632 137.456 343.636 144.91 345.315C145.851 345.526 146.252 344.08 145.309 343.868Z" fill="#303030"/>
<path d="M133.133 335.05C128.859 338.53 124.473 342.217 122.143 347.344C121.747 348.216 123.039 348.98 123.438 348.101C125.718 343.085 130.013 339.515 134.194 336.111C134.942 335.501 133.876 334.445 133.133 335.05Z" fill="#303030"/>
<path d="M112.607 343.257C119.374 341.339 126.552 340.315 133.581 341.013C135.587 341.212 137.571 341.583 139.508 342.139C140.438 342.406 140.834 340.959 139.907 340.693C132.803 338.654 125.135 339.061 117.949 340.444C116.016 340.816 114.101 341.274 112.208 341.811C111.281 342.073 111.675 343.521 112.607 343.257Z" fill="#303030"/>
<path d="M127.37 326.103C121.731 329.293 115.889 332.757 112.496 338.487C112.003 339.32 113.299 340.075 113.791 339.244C117.047 333.743 122.718 330.457 128.127 327.398C128.968 326.923 128.213 325.627 127.37 326.103Z" fill="#303030"/>
<path d="M103.173 334.237C110.725 333.479 118.39 332.863 125.974 333.507C127.719 333.655 129.454 333.883 131.175 334.21C132.118 334.39 132.523 332.944 131.574 332.764C124.649 331.447 117.516 331.613 110.516 332.101C108.065 332.272 105.618 332.492 103.174 332.737C102.222 332.833 102.212 334.334 103.173 334.237Z" fill="#303030"/>
<path d="M121.428 299.897C121.428 299.897 106.341 312.036 80.1453 307.795L83.1333 318.444C107.687 322.419 122.731 311.137 122.731 311.137L121.428 299.897Z" fill="#303030"/>
<path d="M58.7584 227.047C64.4434 186.343 67.4824 153.729 67.4824 153.729C67.4824 153.729 78.2584 134.899 79.5324 118.759L30.6204 116.398C21.0234 136.25 19.0494 144.163 18.5974 182.125C18.2654 210.042 19.6714 216.867 19.7994 229.943C20.0404 254.63 20.8314 271.639 22.0354 292.335C23.3124 314.279 24.6074 328.653 22.8584 333.766C20.7504 339.925 19.3834 343.617 16.7364 347.811C12.0484 355.239 6.96236 358.052 4.32936 363.296C3.78836 364.373 3.17436 367.147 4.85536 367.528C4.76136 368.481 4.94536 369.329 5.58636 369.892C6.36736 370.578 7.51037 370.774 8.57437 370.35C8.60437 370.963 8.94237 372.042 10.1304 372.404C11.6114 372.855 13.1284 372.33 13.5694 371.839C14.0174 373.044 14.7654 373.945 16.6314 373.933C17.8684 373.925 19.0094 373.078 19.4424 372.362C19.4164 373.473 20.8234 374.505 21.7674 374.714C26.3404 375.726 28.4464 373.237 30.8624 370.988C32.9464 369.047 34.4104 366.487 35.9324 364.075C37.8984 360.96 39.1374 357.357 40.6924 355.737C42.1494 354.218 45.2964 353.066 47.1404 350.22C50.0374 345.748 48.9254 341.243 47.9204 337.399C48.0224 336.242 47.6814 330.538 48.1364 327.022C48.7834 322.02 50.1694 315.132 51.3864 308.239C52.6324 301.179 56.5254 277.145 56.8664 263.413C57.2064 249.678 57.6304 235.12 58.7584 227.047Z" fill="#FDCECA"/>
<path d="M27.6793 112.061L24.7253 119.152C12.9303 137.672 12.1153 152.88 12.9303 190.436C13.8683 233.671 17.0803 315.087 17.0803 315.087C24.3133 320.991 48.6053 321.311 56.6543 316.144C57.5603 310.829 58.7763 297.665 60.2233 275.729C61.1633 261.481 59.5973 253.319 61.1563 239.575C65.7953 198.692 69.6983 161.137 69.6983 161.137C69.6983 161.137 87.9273 144.038 89.4913 108.661L27.6793 112.061Z" fill="#3F7FE1"/>
<path d="M15.9584 307.045L16.5284 316.91C24.3124 323.264 48.8344 323.549 57.4964 317.988L58.5464 308.183C49.8844 313.743 23.7424 313.4 15.9584 307.045Z" fill="#303030"/>
<path d="M62.9623 224.326C62.9623 224.326 65.5543 199.1 67.2163 183.657C69.1193 165.968 69.2653 162.28 71.5983 155.918C73.7733 149.988 76.3993 144.211 73.1693 122.855" stroke="#303030" stroke-width="1.5" stroke-miterlimit="10" stroke-linecap="round" stroke-linejoin="round"/>
<path d="M26.6233 120.716C34.0403 123.544 66.3053 128.599 88.9023 117.962" stroke="#303030" stroke-width="1.5" stroke-miterlimit="10" stroke-linecap="round" stroke-linejoin="round"/>
<path d="M44.6703 123.983C39.6453 136.097 38.2763 140.333 36.2413 143.81C33.2723 148.883 29.3843 150.308 22.6113 147.553" stroke="#303030" stroke-width="1.5" stroke-miterlimit="10" stroke-linecap="round" stroke-linejoin="round"/>
<path d="M31.4633 122.064C21.7933 140.193 20.4283 147.063 20.5863 171.834C20.7313 194.548 17.2583 222.8 18.1273 249.002" stroke="#303030" stroke-width="1.5" stroke-miterlimit="10" stroke-linecap="round" stroke-linejoin="round"/>
<path d="M48.1353 327.02C50.9353 327.352 50.7923 330.63 50.6533 333.686C50.3513 340.333 50.6883 343.242 51.3853 347.412C51.9163 350.589 51.8593 352.623 51.5883 356.016C51.5883 356.016 49.9533 356.935 49.0563 357.245C45.7703 358.378 43.7373 361.749 42.1603 364.968C40.5843 368.187 39.0303 371.687 36.0803 373.577C30.2583 377.305 21.9933 377.268 15.4633 376.945C13.3593 376.841 9.97131 376.196 7.97531 375.494C5.97931 374.792 2.69431 372.44 1.62731 370.543C-0.351694 367.026 2.78331 363.025 5.05431 359.706C7.32431 356.387 10.4693 353.803 12.7353 350.481C16.3653 345.158 18.7223 338.382 18.9943 331.819C19.1053 329.124 20.1373 326.237 22.5913 325.909C26.5473 325.379 28.9713 325.643 31.9973 325.804C34.7963 325.953 37.9223 326.903 39.1763 329.523C39.8693 330.972 40.2293 332.656 40.1953 334.276C41.2453 332.376 42.0363 330.794 43.4263 330.104C44.7513 329.446 45.8593 329.341 47.8033 329.741C47.8043 329.735 48.1353 327.02 48.1353 327.02Z" fill="#F55571"/>
<path d="M41.8573 331.293C39.3003 335.762 35.6973 342.78 33.1403 347.249C32.4283 348.493 31.6933 349.828 31.7403 351.277C31.8073 353.353 33.4173 354.955 34.8173 356.429C36.6013 358.308 38.2453 360.406 39.1633 362.874C40.0813 365.341 40.1943 368.235 38.9983 370.568" stroke="#303030" stroke-width="1.5" stroke-miterlimit="10" stroke-linecap="round" stroke-linejoin="round"/>
<path d="M21.3593 331.317C20.9743 333.897 20.1053 337.12 19.5003 339.229C18.5833 342.429 17.6463 345.674 15.9343 348.495C13.9163 351.822 10.9303 354.375 7.86326 356.666C6.90026 357.385 5.89426 358.118 5.29626 359.184" stroke="#303030" stroke-width="1.5" stroke-miterlimit="10" stroke-linecap="round" stroke-linejoin="round"/>
<path d="M37.1933 359.433C35.4203 361.679 31.3433 363.281 28.6543 364.043C22.7433 365.718 15.4003 364.777 11.3763 364.121C7.71629 363.524 4.04829 361.583 5.05529 359.706" stroke="#303030" stroke-width="1.5" stroke-miterlimit="10" stroke-linecap="round" stroke-linejoin="round"/>
<path d="M23.3103 376.932C27.7593 376.762 32.2263 376.046 36.0823 373.577C39.0323 371.688 40.5863 368.187 42.1623 364.968C43.7383 361.749 45.7723 358.378 49.0583 357.245C49.9553 356.936 50.9783 356.768 51.5903 356.016C51.6473 358.045 51.7773 358.749 51.5763 360.593C51.3943 362.271 51.0773 363.884 49.6523 364.68C46.9643 366.18 44.5283 367.285 43.0643 370.692C41.2783 374.848 40.1043 379.056 33.5953 381.911C27.1233 384.751 16.2843 384.26 8.69231 382.547C1.14131 380.844 1.26231 375.575 1.62931 370.542C2.63631 372.332 4.70131 374.306 6.55631 375.001C13.4753 377.592 19.5553 377.075 23.3103 376.932Z" fill="white" stroke="#303030" stroke-width="1.5" stroke-miterlimit="10" stroke-linecap="round" stroke-linejoin="round"/>
<path d="M34.6473 351.682C28.1963 347.361 19.6503 347.122 12.4683 349.916" stroke="#303030" stroke-width="1.5" stroke-miterlimit="10" stroke-linecap="round" stroke-linejoin="round"/>
<path d="M33.5743 346.252C32.7353 345.337 31.5483 344.884 30.3973 344.487C26.0573 342.991 21.5983 341.876 17.0803 341.16" stroke="#303030" stroke-width="1.5" stroke-miterlimit="10" stroke-linecap="round" stroke-linejoin="round"/>
<path d="M15.9263 344.94C23.6833 342.437 30.9833 341.997 39.1013 342.056" stroke="#303030" stroke-width="1.5" stroke-miterlimit="10" stroke-linecap="round" stroke-linejoin="round"/>
<path d="M37.2523 339.537C31.6983 336.981 25.0523 335.19 19.0463 334.275" stroke="#303030" stroke-width="1.5" stroke-miterlimit="10" stroke-linecap="round" stroke-linejoin="round"/>
<path d="M19.8193 338.117C26.4663 337.11 36.4733 335.292 43.1883 335.444" stroke="#303030" stroke-width="1.5" stroke-miterlimit="10" stroke-linecap="round" stroke-linejoin="round"/>
<path d="M153.308 68.3494C152.88 67.5894 152.03 67.0584 151.163 67.1554C152.09 66.5504 152.434 65.2014 151.911 64.2264C151.388 63.2514 150.073 62.7924 149.056 63.2304C149.667 62.7574 150.576 61.0474 149.325 59.4424C148.147 57.9314 146.128 59.3674 146.073 59.3014C146.073 59.3014 148.46 55.3224 148.956 54.5224C149.897 53.0014 150.264 52.3044 150.513 51.1734C150.8 49.8694 149.667 48.8644 148.408 49.4884C147.064 50.1554 146.349 51.4034 145.191 52.9584C143.773 54.8614 141.493 58.3074 139.736 60.5294C138.774 61.7464 138.464 62.3144 138.151 62.2274C137.491 62.0434 137.781 60.3084 137.945 59.5924C138.196 58.4984 138.529 57.3854 138.378 56.2524C138.27 55.4424 137.44 54.4264 136.52 54.7274C136.3 54.7994 136.119 54.9594 135.965 55.1324C135.197 55.9954 134.827 57.4864 134.384 58.5494C133.855 59.8214 133.374 61.1144 132.945 62.4234C132.352 64.2314 131.796 66.0184 130.954 67.9074C130.113 69.7964 128.226 71.6764 127.021 72.5934C121.923 76.4754 117.671 78.8224 112.1 81.9434C106.046 75.0224 99.4603 67.0214 95.4093 62.2294C91.3623 57.4424 89.3763 55.9214 86.8333 55.1224C84.1703 54.2854 82.6803 53.9054 79.3353 53.4074C75.7983 59.1334 77.6383 71.2064 86.6643 84.0324C89.3443 87.8394 94.6603 93.9124 97.6623 96.8704C100.665 99.8284 107.481 108.097 116.652 101.54C126.977 94.1584 133.312 85.6374 136.431 83.0734C139.55 80.5094 143.278 78.4214 146.766 76.0764C148.24 75.0854 149.624 73.9614 151.028 72.8754C152.219 71.9544 153.833 70.8284 153.572 69.1044C153.532 68.8394 153.44 68.5834 153.308 68.3494Z" fill="#FDCECA"/>
<path d="M141.236 65.7484C141.673 69.4944 139.351 72.1204 137.386 74.0264" stroke="#303030" stroke-width="1.5" stroke-miterlimit="10" stroke-linecap="round" stroke-linejoin="round"/>
<path d="M148.245 63.6894C147.109 64.5494 145.901 65.3124 144.636 65.9684C143.343 66.6394 142.245 67.0734 141.556 66.2884C140.867 65.5034 141.007 64.3114 141.697 63.4424C142.696 62.1844 144.464 60.5474 146.072 59.3004" stroke="#303030" stroke-width="1.5" stroke-miterlimit="10" stroke-linecap="round" stroke-linejoin="round"/>
<path d="M150.359 68.0964C149.223 68.9564 148.015 69.7194 146.75 70.3754C145.457 71.0464 144.359 71.4804 143.67 70.6954C142.981 69.9104 143.121 68.7184 143.811 67.8494C144.81 66.5904 146.578 64.9544 148.186 63.7074" stroke="#303030" stroke-width="1.5" stroke-miterlimit="10" stroke-linecap="round" stroke-linejoin="round"/>
<path d="M148.924 74.7644C147.63 75.4354 146.533 75.8694 145.844 75.0844C145.155 74.2994 145.295 73.1074 145.985 72.2384C146.984 70.9804 148.752 69.3434 150.36 68.0964" stroke="#303030" stroke-width="1.5" stroke-miterlimit="10" stroke-linecap="round" stroke-linejoin="round"/>
<path d="M112.089 81.9464C109.619 83.7184 107.625 86.3924 106.393 88.8674" stroke="#303030" stroke-width="1.5" stroke-miterlimit="10" stroke-linecap="round" stroke-linejoin="round"/>
<path d="M88.6883 87.9404C88.8873 87.8704 89.0883 87.8074 89.2863 87.7354C92.1363 86.6964 94.9533 85.4384 97.3043 83.4904C100.772 80.6164 103.875 77.0704 106.177 73.1224C103.475 69.8634 100.262 65.9614 97.4673 62.4964C91.2073 54.7374 88.3983 53.4934 78.6783 52.0924C74.8103 58.8324 77.5243 70.2554 80.7043 76.6524C82.1903 79.6404 85.2373 83.7994 88.6883 87.9404Z" fill="#303030"/>
<path d="M73.0163 12.5633C76.1703 22.5573 69.1403 33.6853 57.3133 37.4183C45.4863 41.1513 33.3413 36.0753 30.1873 26.0813C27.0333 16.0873 34.0633 4.95934 45.8903 1.22634C57.7163 -2.50666 69.8613 2.56934 73.0163 12.5633Z" fill="#303030"/>
<path d="M68.9762 19.1194C68.5412 16.1504 68.1682 14.3124 66.4882 11.8884C61.0492 4.03839 48.3962 4.18439 39.4802 10.1944C43.1852 19.9464 36.1282 26.9974 36.1282 26.9974C37.1712 28.5934 37.0802 28.7514 37.7012 30.5394C36.0732 28.7864 33.7562 27.4864 31.2932 27.5384C28.8302 27.5904 26.3362 29.2684 25.9352 31.5954C25.5392 33.8964 27.2842 36.1844 29.5492 37.0214C31.8142 37.8584 34.7812 37.6334 37.3152 36.0004L37.3182 35.9984C38.4372 37.9484 40.4952 39.8034 43.2732 41.0014V50.5224L38.1272 52.4034C38.1272 52.4034 51.0482 72.2494 64.4992 70.0154C77.7502 67.8144 65.4612 50.3234 65.4612 50.3234L59.3052 49.1684L57.8292 42.2434C62.4622 40.9344 67.8562 38.8214 70.5052 31.8524C71.7242 28.6514 71.9572 21.7994 68.9762 19.1194Z" fill="#FDCECA"/>
<path d="M27.7273 28.1023C27.7773 28.1023 27.8273 28.1043 27.8773 28.1073C27.9023 28.1093 27.9273 28.1113 27.9523 28.1143C28.0063 28.1203 28.0173 28.1493 27.9233 28.1103C27.9653 28.1283 28.0253 28.1283 28.0713 28.1383C28.1203 28.1493 28.1683 28.1623 28.2163 28.1763C28.2593 28.1893 28.3023 28.2033 28.3453 28.2183C28.3693 28.2263 28.3923 28.2363 28.4153 28.2443C28.4993 28.2753 28.3373 28.2083 28.3933 28.2353C28.4843 28.2793 28.5733 28.3233 28.6593 28.3753C28.6983 28.3983 28.7353 28.4233 28.7733 28.4493C28.7943 28.4633 28.8143 28.4783 28.8343 28.4933C28.8843 28.5283 28.7483 28.4233 28.8163 28.4793C28.8933 28.5433 28.9683 28.6103 29.0373 28.6823C29.0723 28.7183 29.1053 28.7563 29.1373 28.7943C29.1503 28.8093 29.1613 28.8263 29.1753 28.8413C29.0823 28.7403 29.1493 28.8073 29.1693 28.8363C29.2273 28.9183 29.2793 29.0043 29.3253 29.0933C29.4473 29.3253 29.7893 29.4143 30.0093 29.2723C30.2453 29.1203 30.3193 28.8363 30.1883 28.5883C29.7183 27.6913 28.7343 27.1093 27.7253 27.1023C27.4633 27.1003 27.2133 27.3333 27.2253 27.6023C27.2393 27.8753 27.4463 28.1003 27.7273 28.1023Z" fill="#303030"/>
<path d="M26.1812 29.8954C26.2312 29.8954 26.2812 29.8974 26.3312 29.9004C26.3562 29.9024 26.3812 29.9044 26.4062 29.9074C26.4602 29.9134 26.4712 29.9424 26.3772 29.9034C26.4192 29.9214 26.4792 29.9214 26.5252 29.9314C26.5742 29.9424 26.6222 29.9554 26.6702 29.9694C26.7132 29.9824 26.7562 29.9964 26.7992 30.0114C26.8232 30.0194 26.8462 30.0294 26.8692 30.0374C26.9532 30.0684 26.7912 30.0014 26.8472 30.0284C26.9382 30.0724 27.0272 30.1164 27.1132 30.1684C27.1522 30.1924 27.1892 30.2164 27.2272 30.2424C27.2482 30.2564 27.2682 30.2714 27.2882 30.2864C27.3382 30.3214 27.2022 30.2164 27.2702 30.2724C27.3472 30.3364 27.4222 30.4034 27.4912 30.4764C27.5262 30.5124 27.5592 30.5504 27.5912 30.5884C27.6042 30.6034 27.6162 30.6204 27.6292 30.6354C27.5362 30.5344 27.6032 30.6014 27.6232 30.6304C27.6812 30.7124 27.7332 30.7984 27.7792 30.8874C27.9012 31.1194 28.2432 31.2084 28.4632 31.0664C28.6992 30.9144 28.7732 30.6304 28.6422 30.3824C28.1722 29.4854 27.1882 28.9034 26.1792 28.8964C25.9172 28.8944 25.6672 29.1274 25.6792 29.3964C25.6932 29.6674 25.9012 29.8934 26.1812 29.8954Z" fill="#303030"/>
<path d="M49.1663 42.3164C49.1663 42.3164 53.4073 43.3474 57.8323 42.2434L58.3173 44.5174C58.3173 44.5174 53.1603 45.3484 49.1663 42.3164Z" fill="#303030"/>
<path d="M54.6212 16.8153C56.0342 21.5913 58.7452 22.0403 59.1032 24.0053C59.4312 25.8043 57.3602 26.9063 56.3722 27.1813" stroke="#303030" stroke-width="1.5" stroke-miterlimit="10" stroke-linecap="round" stroke-linejoin="round"/>
<path d="M58.9272 36.6184C58.9672 36.8034 59.0002 36.9894 59.0252 37.1774C59.0192 37.1334 59.0132 37.0884 59.0072 37.0444C59.0322 37.2324 59.0502 37.4203 59.0602 37.6093C59.0672 37.7423 59.1112 37.8674 59.2062 37.9634C59.2932 38.0504 59.4352 38.1153 59.5602 38.1093C59.6892 38.1033 59.8232 38.0614 59.9142 37.9634C60.0012 37.8684 60.0682 37.7423 60.0602 37.6093C60.0362 37.1873 59.9802 36.7664 59.8912 36.3534C59.8662 36.2344 59.7642 36.1143 59.6612 36.0543C59.5542 35.9913 59.3962 35.9654 59.2762 36.0044C59.0072 36.0914 58.8682 36.3444 58.9272 36.6184Z" fill="#303030"/>
<path d="M58.4632 20.2424C57.7572 18.1714 59.9482 15.1804 63.6922 15.1354C67.4422 15.0894 68.0622 17.1834 67.1792 18.1764C66.2972 19.1694 65.8802 18.3384 64.6392 17.8174C63.3982 17.2974 59.2712 17.8694 58.4632 20.2424Z" fill="#AD6163"/>
<path d="M58.7452 20.5594C58.8832 19.0094 60.0472 17.6024 61.5882 17.1234C63.1292 16.6444 65.5492 16.8764 66.4552 18.9774C66.3692 21.3164 61.5432 23.1004 58.7452 20.5594Z" fill="white"/>
<path d="M65.4592 19.7584C65.1782 20.9224 63.9622 21.6343 62.7412 21.3493C61.5212 21.0643 60.7592 19.8883 61.0402 18.7243C61.3212 17.5603 62.5382 16.8484 63.7582 17.1334C64.9782 17.4194 65.7402 18.5944 65.4592 19.7584Z" fill="#303030"/>
<path d="M60.8743 18.6984L63.2503 19.2414L60.8383 19.9474L60.8743 18.6984Z" fill="white"/>
<path d="M66.4543 18.9774C65.5483 16.8764 63.1283 16.6444 61.5873 17.1234C60.0473 17.6024 58.8823 19.0104 58.7443 20.5594" stroke="#303030" stroke-width="1.5" stroke-miterlimit="10" stroke-linecap="round" stroke-linejoin="round"/>
<path d="M67.5393 17.2833C67.4373 17.7943 67.0013 18.2213 66.4883 18.3133" stroke="#303030" stroke-width="1.5" stroke-miterlimit="10" stroke-linecap="round" stroke-linejoin="round"/>
<path d="M58.9163 12.6214C61.1623 11.9474 63.6953 11.9204 65.5553 13.0394" stroke="#303030" stroke-width="1.5" stroke-miterlimit="10" stroke-linecap="round" stroke-linejoin="round"/>
<path d="M51.7672 20.4533C51.6312 18.2693 48.4672 16.3373 44.9882 17.7203C41.5032 19.1053 41.7262 21.2773 42.9202 21.8593C44.1142 22.4423 44.1822 21.5143 45.1322 20.5613C46.0832 19.6073 50.1162 18.5673 51.7672 20.4533Z" fill="#AD6163"/>
<path d="M43.8912 22.7653C44.0292 21.2153 45.1932 19.8083 46.7342 19.3293C48.2752 18.8503 50.6942 19.0823 51.6012 21.1833C51.5162 23.5223 46.6902 25.3053 43.8912 22.7653Z" fill="white"/>
<path d="M50.6062 21.9633C50.3252 23.1273 49.1092 23.8393 47.8882 23.5543C46.6682 23.2693 45.9062 22.0933 46.1872 20.9293C46.4682 19.7653 47.6842 19.0533 48.9042 19.3383C50.1252 19.6243 50.8872 20.7993 50.6062 21.9633Z" fill="#303030"/>
<path d="M46.0212 20.9043L48.3972 21.4463L45.9852 22.1523L46.0212 20.9043Z" fill="white"/>
<path d="M51.6012 21.1833C50.6952 19.0823 48.2752 18.8503 46.7342 19.3293C45.1932 19.8083 44.0282 21.2153 43.8912 22.7653" stroke="#303030" stroke-width="1.5" stroke-miterlimit="10" stroke-linecap="round" stroke-linejoin="round"/>
<path d="M42.3573 21.4363C42.7643 21.9143 43.4533 22.1313 44.0613 21.9733" stroke="#303030" stroke-width="1.5" stroke-miterlimit="10" stroke-linecap="round" stroke-linejoin="round"/>
<path d="M49.3993 13.3093C46.5503 13.3283 43.8913 14.3543 41.7023 16.9143" stroke="#303030" stroke-width="1.5" stroke-miterlimit="10" stroke-linecap="round" stroke-linejoin="round"/>
<path d="M54.9082 31.6174C56.1842 31.6364 57.7442 31.8244 58.2442 32.9164C58.8262 31.5514 59.8132 31.1194 59.8132 31.1194C59.8132 31.1194 58.5742 30.5004 57.2672 30.6934C55.9602 30.8854 54.9082 31.6174 54.9082 31.6174Z" fill="#303030"/>
<path d="M52.8182 32.3043C53.2482 32.8953 54.9472 34.2793 57.5142 33.7923C58.0722 33.6683 58.0792 33.3153 58.2432 32.9163C58.1272 32.3863 57.2072 31.4163 54.9072 31.6173C54.3212 32.0393 53.4352 32.2543 52.8182 32.3043Z" fill="#FF95FB" stroke="#303030" stroke-width="1.5" stroke-miterlimit="10" stroke-linecap="round" stroke-linejoin="round"/>
<path d="M54.2072 31.9344C54.2072 31.9344 54.3252 32.4094 55.0902 32.4474C55.8552 32.4854 57.4692 32.2024 57.9842 31.8524C58.4992 31.5014 58.5922 30.7744 58.5922 30.7744C58.5922 30.7744 57.5582 30.4904 56.8992 30.7304C56.2402 30.9694 54.4372 31.8534 54.2072 31.9344Z" fill="white"/>
<path d="M61.0502 31.1094C59.7802 31.2194 58.5332 30.5494 57.2672 30.6924C56.2802 30.8044 55.4232 31.3924 54.5192 31.8044C53.6152 32.2164 52.4832 32.4344 51.6792 31.8504" stroke="#303030" stroke-width="1.5" stroke-miterlimit="10" stroke-linecap="round" stroke-linejoin="round"/>
<path d="M59.9302 31.1494C59.1142 31.6334 58.4662 32.2684 58.1452 33.1614C58.0932 33.3064 58.0182 33.6544 57.5142 33.7914C56.5882 34.0444 53.9912 33.9124 52.7642 32.2324" stroke="#303030" stroke-width="1.5" stroke-miterlimit="10" stroke-linecap="round" stroke-linejoin="round"/>
<path d="M29.7603 31.4343C30.2933 30.9983 31.6543 30.5923 33.0763 30.8613C34.4993 31.1303 35.7383 32.1363 36.2453 33.4343" stroke="#303030" stroke-width="1.5" stroke-miterlimit="10" stroke-linecap="round" stroke-linejoin="round"/>
<path d="M32.2543 32.7693C32.6473 32.4513 34.0513 31.6103 35.5313 32.2723" stroke="#303030" stroke-width="1.5" stroke-miterlimit="10" stroke-linecap="round" stroke-linejoin="round"/>
<path d="M39.6823 51.8093L23.8363 57.4163C19.4653 72.6003 28.0823 90.2263 28.0823 90.2263C29.6543 99.8023 30.4643 105.848 30.4643 105.848C30.4643 105.848 26.4343 113.479 22.5753 121.202C29.7243 129.43 48.9103 130.713 63.2733 129.114C77.6363 127.515 87.0823 122.35 91.8923 117.633C90.9893 113.078 88.7233 104.691 88.7233 104.691C88.7233 104.691 88.5023 96.8693 88.9963 88.4803C96.5723 71.2463 84.9683 59.3093 78.6423 52.1013L62.0043 49.7043C62.0043 49.7043 69.1583 60.0434 65.1033 68.0384C51.3873 63.4814 39.6823 51.8093 39.6823 51.8093Z" fill="#303030"/>
<path d="M73.5042 107.418L101.051 104.347C102.187 104.22 103.459 103.26 103.892 102.202L117.769 68.3044C118.202 67.2464 117.632 66.4924 116.496 66.6204L88.9392 69.7124C87.8032 69.8404 86.5312 70.8004 86.0982 71.8584L72.2312 105.732C71.7982 106.79 72.3682 107.544 73.5042 107.418Z" fill="white" stroke="#303030" stroke-width="1.5" stroke-miterlimit="10" stroke-linecap="round" stroke-linejoin="round"/>
<path d="M70.1813 115.501C70.1813 115.501 51.6223 117.649 40.1433 118.593C29.3533 119.481 27.2993 114.871 24.3313 107.629C19.4903 95.8143 17.8433 92.8223 14.3243 80.9763C10.8163 69.1713 13.5223 62.9524 23.0723 58.9644C27.5863 62.3494 29.4223 64.9883 33.0773 73.7583C35.7973 80.2853 43.3173 99.1893 43.3173 99.1893C43.3173 99.1893 55.7653 100.827 65.4013 100.939C68.2023 100.972 69.5903 99.1884 70.7913 98.1824C74.6923 94.9124 77.1573 93.6994 77.1573 93.6994L75.5673 98.2614C79.1433 98.1194 89.3273 95.8424 93.4373 94.2894C97.1913 92.8714 99.2533 95.6523 96.9683 97.6273C96.4423 98.0823 95.6403 98.6864 95.6403 98.6864C95.6403 98.6864 96.5383 100.899 93.3893 102.851C90.2403 104.804 88.7373 105.781 88.7373 105.781C88.7373 105.781 88.5703 107.911 86.6313 109.735C85.2943 111.397 82.1193 111.785 80.8413 112.794C79.2503 114.979 76.0423 115.116 70.1813 115.501Z" fill="#FDCECA"/>
<path d="M38.6433 100.551C40.1213 99.8333 41.8513 99.5863 43.4473 99.8583C43.8463 99.9263 44.2553 99.7523 44.3703 99.3343C44.4693 98.9743 44.2483 98.4803 43.8463 98.4113C41.8053 98.0633 39.7493 98.3503 37.8863 99.2553C37.5223 99.4323 37.4243 99.9513 37.6173 100.281C37.8353 100.653 38.2783 100.728 38.6433 100.551Z" fill="#303030"/>
<path d="M89.3313 105.839C87.0973 106.961 85.1423 107.801 83.1893 108.387" stroke="#303030" stroke-width="1.5" stroke-miterlimit="10" stroke-linecap="round" stroke-linejoin="round"/>
<path d="M84.7263 96.8064C82.2653 97.4574 77.8423 98.1784 75.5673 98.5084" stroke="#303030" stroke-width="1.5" stroke-miterlimit="10" stroke-linecap="round" stroke-linejoin="round"/>
<path d="M95.6403 98.6864C90.1673 101.428 86.8083 102.786 81.5543 104.172" stroke="#303030" stroke-width="1.5" stroke-miterlimit="10" stroke-linecap="round" stroke-linejoin="round"/>
<path d="M15.0203 94.5904C21.8603 95.2744 35.0153 92.1254 39.0453 87.9404C39.0453 87.9404 36.3893 79.9584 35.2293 76.7944C32.4203 69.1334 28.8893 62.0384 23.8363 57.4164C14.9513 60.7184 11.4473 66.0904 11.4863 72.5904C11.5253 79.1764 12.9803 85.8124 15.0203 94.5904Z" fill="#303030"/>
<path d="M28.4863 64.2373C31.1193 67.1213 32.7363 70.7753 34.0633 74.4043C35.6093 78.6323 36.8293 82.9713 38.3213 87.2183C38.6393 88.1233 40.0893 87.7333 39.7673 86.8193C38.2293 82.4433 36.9843 77.9673 35.3673 73.6203C33.9723 69.8713 32.2693 66.1593 29.5463 63.1773C28.8943 62.4623 27.8363 63.5253 28.4863 64.2373Z" fill="#00826F"/>
</svg>
