<svg width="364" height="500" viewBox="0 0 364 500" fill="none" xmlns="http://www.w3.org/2000/svg">
<g clip-path="url(#clip0_851_33)">
<g filter="url(#filter0_d_851_33)">
<path d="M236.622 385.748C234.047 393.777 231.07 401.413 233.616 407.903C234.921 411.228 235.178 417.709 229.095 421.333C223.895 424.43 218.034 423.99 212.63 427.109C210.344 428.428 208.237 430.102 206.036 431.567C202.995 433.592 199.838 435.488 196.463 436.84C193.297 438.109 189.938 439.508 186.5 439.515C184.385 439.519 181.411 438.992 180.604 436.939L179.989 436.841C179.43 437.032 178.893 437.045 178.373 437.002C177.7 436.948 177.125 436.705 176.6 436.206C176.6 436.206 175.444 436.001 175.273 435.982C174.141 435.854 173.574 435.211 173.162 434.292C172.571 434.11 171.739 433.252 171.553 432.691C170.703 430.131 172.592 427.819 174.377 426.321C175.254 425.585 176.204 424.947 177.181 424.366C183.88 420.381 195.671 408.805 199.571 404.4C203.081 400.436 206.264 392.725 207.445 381.955C209.382 369.575 217.595 292.584 220.704 272.924C223.813 253.264 230.815 224.285 239.971 188.291L293.404 185.711L295.234 227.105L257.303 298.724C255.439 343.256 238.186 381.416 236.622 385.748Z" fill="#FDCECA"/>
<path d="M238.613 177.778L237.675 186.046C232.209 202.662 228.216 215.639 222.16 245.072C218.673 262.019 217.304 279.436 214.312 303.597C211.852 323.457 206.31 378.585 206.31 378.585C206.31 378.585 220.783 389.714 244.18 385.926C257.962 347.688 260.4 319.772 262.577 298.469L298.777 227.524L293.933 173.121L238.613 177.778Z" fill="#3F7FE1"/>
<path d="M262.041 263.632C256.121 286.138 253.692 296.471 253.422 312.612C252.961 340.127 236.321 386.682 236.321 386.682" stroke="#303030" stroke-width="1.5" stroke-miterlimit="10" stroke-linecap="round" stroke-linejoin="round"/>
<path d="M223.668 398.752C224.327 393.127 221.316 390.732 215.765 389.406C210.214 388.08 206.31 386.937 204.018 389.272C202.749 390.566 202.185 394.708 198.623 400.716C196.439 404.399 187.544 411.509 182.04 415.143C176.233 418.977 173.529 420.384 170.561 423.818C167.876 426.925 169.081 434.694 169.081 434.694C169.081 434.694 178.097 443.051 191.632 441.293C205.339 439.513 206.037 431.565 215.448 428.352C219.93 426.822 231.217 423.986 234.706 419.699C236.129 413.011 235.588 407.499 235.766 402.938C235.964 397.869 238.154 393.009 234.437 392.515L233.774 395.021C233.774 395.021 229.244 396.215 227.073 396.573C224.657 396.973 223.668 398.752 223.668 398.752Z" fill="#F55571"/>
<path d="M191.631 441.294C205.338 439.514 206.036 431.566 215.447 428.353C219.929 426.823 231.216 423.987 234.705 419.7V424.766C234.705 426.736 233.774 428.608 232.173 429.648C227.402 432.748 220.606 433.438 216.925 434.695C207.514 437.908 206.157 446.191 192.45 447.972C184.716 448.977 175.865 446.438 172.505 444.061C168.084 440.932 169.08 434.696 169.08 434.696C169.08 434.696 178.096 443.052 191.631 441.294Z" fill="white" stroke="#303030" stroke-width="1.5" stroke-miterlimit="10" stroke-linecap="round" stroke-linejoin="round"/>
<path d="M224.398 398.03C221.808 403.208 217.808 407.419 213.45 411.158C210.986 413.272 208.421 415.264 205.861 417.259C205.199 417.775 204.537 418.291 203.876 418.808C203.277 419.277 202.625 419.736 202.161 420.348C201.095 421.757 201.873 423.348 202.622 424.7C203.529 426.339 204.341 427.963 204.778 429.798C205.213 431.627 205.335 433.522 205.136 435.391C205.035 436.341 203.534 436.351 203.636 435.391C203.822 433.651 203.737 431.901 203.332 430.197C202.942 428.559 202.25 427.103 201.432 425.643C200.683 424.305 199.912 422.81 200.175 421.228C200.449 419.58 201.764 418.569 202.999 417.604C208.003 413.691 213.205 409.889 217.535 405.209C219.744 402.821 221.646 400.185 223.103 397.272C223.535 396.409 224.829 397.168 224.398 398.03Z" fill="#303030"/>
<path d="M202.384 426.786C198.17 428.743 193.392 429.325 188.784 429.104C184.64 428.906 180.251 428.134 176.574 426.121C175.159 425.347 173.716 424.286 172.993 422.799C172.573 421.934 173.866 421.173 174.288 422.042C174.85 423.198 175.913 424.006 177.009 424.645C178.512 425.521 180.169 426.107 181.844 426.554C185.984 427.658 190.4 427.926 194.65 427.398C197.04 427.101 199.437 426.508 201.627 425.491C202.497 425.087 203.26 426.379 202.384 426.786Z" fill="#303030"/>
<path d="M182.795 412.984C188.93 411.603 195.536 413.099 200.573 416.841C202.021 417.917 203.333 419.148 204.48 420.543C205.088 421.283 204.033 422.35 203.419 421.604C198.606 415.748 190.648 412.752 183.194 414.431C182.253 414.642 181.852 413.196 182.795 412.984Z" fill="#303030"/>
<path d="M194.971 404.166C199.245 407.646 203.631 411.333 205.961 416.46C206.357 417.332 205.065 418.096 204.666 417.217C202.386 412.201 198.091 408.631 193.91 405.227C193.162 404.617 194.228 403.561 194.971 404.166Z" fill="#303030"/>
<path d="M215.496 412.373C208.729 410.455 201.551 409.431 194.522 410.129C192.516 410.328 190.532 410.699 188.595 411.255C187.665 411.522 187.269 410.075 188.196 409.809C195.3 407.77 202.968 408.177 210.154 409.56C212.087 409.932 214.002 410.39 215.895 410.927C216.822 411.189 216.428 412.637 215.496 412.373Z" fill="#303030"/>
<path d="M200.733 395.219C206.372 398.409 212.214 401.873 215.607 407.603C216.1 408.436 214.804 409.191 214.312 408.36C211.056 402.859 205.385 399.573 199.976 396.514C199.135 396.039 199.89 394.743 200.733 395.219Z" fill="#303030"/>
<path d="M224.932 403.353C217.38 402.595 209.715 401.979 202.131 402.623C200.386 402.771 198.651 402.999 196.93 403.326C195.987 403.506 195.582 402.06 196.531 401.88C203.456 400.563 210.589 400.729 217.589 401.217C220.04 401.388 222.487 401.608 224.931 401.853C225.883 401.949 225.893 403.45 224.932 403.353Z" fill="#303030"/>
<path d="M206.676 369.013C206.676 369.013 221.763 381.152 247.959 376.911L244.971 387.56C220.417 391.535 205.373 380.253 205.373 380.253L206.676 369.013Z" fill="#303030"/>
<path d="M269.346 296.163C263.661 255.459 260.622 222.845 260.622 222.845C260.622 222.845 249.846 204.015 248.572 187.875L297.484 185.514C307.081 205.366 309.055 213.279 309.507 251.241C309.839 279.158 308.433 285.983 308.305 299.059C308.064 323.746 307.273 340.755 306.069 361.451C304.792 383.395 303.497 397.769 305.246 402.882C307.354 409.041 308.721 412.733 311.368 416.927C316.056 424.355 321.142 427.168 323.775 432.412C324.316 433.489 324.93 436.263 323.249 436.644C323.343 437.597 323.159 438.445 322.518 439.008C321.737 439.694 320.594 439.89 319.53 439.466C319.5 440.079 319.162 441.158 317.974 441.52C316.493 441.971 314.976 441.446 314.535 440.955C314.087 442.16 313.339 443.061 311.473 443.049C310.236 443.041 309.095 442.194 308.662 441.478C308.688 442.589 307.281 443.621 306.337 443.83C301.764 444.842 299.658 442.353 297.242 440.104C295.158 438.163 293.694 435.603 292.172 433.191C290.206 430.076 288.967 426.473 287.412 424.853C285.955 423.334 282.808 422.182 280.964 419.336C278.067 414.864 279.179 410.359 280.184 406.515C280.082 405.358 280.423 399.654 279.968 396.138C279.321 391.136 277.935 384.248 276.718 377.355C275.472 370.295 271.579 346.261 271.238 332.529C270.898 318.794 270.474 304.236 269.346 296.163Z" fill="#FDCECA"/>
<path d="M300.425 181.177L303.379 188.268C315.174 206.788 315.989 221.996 315.174 259.552C314.236 302.787 311.024 384.203 311.024 384.203C303.791 390.107 279.499 390.427 271.45 385.26C270.544 379.945 269.328 366.781 267.881 344.845C266.941 330.597 268.507 322.435 266.948 308.691C262.309 267.808 258.406 230.253 258.406 230.253C258.406 230.253 240.177 213.154 238.613 177.777L300.425 181.177Z" fill="#3F7FE1"/>
<path d="M312.146 376.161L311.576 386.026C303.792 392.38 279.27 392.665 270.608 387.104L269.558 377.299C278.22 382.859 304.362 382.516 312.146 376.161Z" fill="#303030"/>
<path d="M265.143 293.442C265.143 293.442 262.551 268.216 260.889 252.773C258.986 235.084 258.84 231.396 256.507 225.034C254.332 219.104 251.706 213.327 254.936 191.971" stroke="#303030" stroke-width="1.5" stroke-miterlimit="10" stroke-linecap="round" stroke-linejoin="round"/>
<path d="M301.48 189.832C294.063 192.66 261.798 197.715 239.201 187.078" stroke="#303030" stroke-width="1.5" stroke-miterlimit="10" stroke-linecap="round" stroke-linejoin="round"/>
<path d="M283.435 193.099C288.46 205.213 289.829 209.449 291.864 212.926C294.833 217.999 298.721 219.424 305.494 216.669" stroke="#303030" stroke-width="1.5" stroke-miterlimit="10" stroke-linecap="round" stroke-linejoin="round"/>
<path d="M296.641 191.18C306.311 209.309 307.676 216.179 307.518 240.95C307.373 263.664 310.846 291.916 309.977 318.118" stroke="#303030" stroke-width="1.5" stroke-miterlimit="10" stroke-linecap="round" stroke-linejoin="round"/>
<path d="M279.968 396.136C277.168 396.468 277.311 399.746 277.45 402.802C277.752 409.449 277.415 412.358 276.718 416.528C276.187 419.705 276.244 421.739 276.515 425.132C276.515 425.132 278.15 426.051 279.047 426.361C282.333 427.494 284.366 430.865 285.943 434.084C287.519 437.303 289.073 440.803 292.023 442.693C297.845 446.421 306.11 446.384 312.64 446.061C314.744 445.957 318.132 445.312 320.128 444.61C322.124 443.908 325.409 441.556 326.476 439.659C328.455 436.142 325.32 432.141 323.049 428.822C320.779 425.503 317.634 422.919 315.368 419.597C311.738 414.274 309.381 407.498 309.109 400.935C308.998 398.24 307.966 395.353 305.512 395.025C301.556 394.495 299.132 394.759 296.106 394.92C293.307 395.069 290.181 396.019 288.927 398.639C288.234 400.088 287.874 401.772 287.908 403.392C286.858 401.492 286.067 399.91 284.677 399.22C283.352 398.562 282.244 398.457 280.3 398.857C280.299 398.851 279.968 396.136 279.968 396.136Z" fill="#F55571"/>
<path d="M286.246 400.409C288.803 404.878 292.406 411.896 294.963 416.365C295.675 417.609 296.41 418.944 296.363 420.393C296.296 422.469 294.686 424.071 293.286 425.545C291.502 427.424 289.858 429.522 288.94 431.99C288.022 434.457 287.909 437.351 289.105 439.684" stroke="#303030" stroke-width="1.5" stroke-miterlimit="10" stroke-linecap="round" stroke-linejoin="round"/>
<path d="M306.744 400.433C307.129 403.013 307.998 406.236 308.603 408.345C309.52 411.545 310.457 414.79 312.169 417.611C314.187 420.938 317.173 423.491 320.24 425.782C321.203 426.501 322.209 427.234 322.807 428.3" stroke="#303030" stroke-width="1.5" stroke-miterlimit="10" stroke-linecap="round" stroke-linejoin="round"/>
<path d="M290.91 428.549C292.683 430.795 296.76 432.397 299.449 433.159C305.36 434.834 312.703 433.893 316.727 433.237C320.387 432.64 324.055 430.699 323.048 428.822" stroke="#303030" stroke-width="1.5" stroke-miterlimit="10" stroke-linecap="round" stroke-linejoin="round"/>
<path d="M304.793 446.048C300.344 445.878 295.877 445.162 292.021 442.693C289.071 440.804 287.517 437.303 285.941 434.084C284.365 430.865 282.331 427.494 279.045 426.361C278.148 426.052 277.125 425.884 276.513 425.132C276.456 427.161 276.326 427.865 276.527 429.709C276.709 431.387 277.026 433 278.451 433.796C281.139 435.296 283.575 436.401 285.039 439.808C286.825 443.964 287.999 448.172 294.508 451.027C300.98 453.867 311.819 453.376 319.411 451.663C326.962 449.96 326.841 444.691 326.474 439.658C325.467 441.448 323.402 443.422 321.547 444.117C314.628 446.708 308.548 446.191 304.793 446.048Z" fill="white" stroke="#303030" stroke-width="1.5" stroke-miterlimit="10" stroke-linecap="round" stroke-linejoin="round"/>
<path d="M293.456 420.798C299.907 416.477 308.453 416.238 315.635 419.032" stroke="#303030" stroke-width="1.5" stroke-miterlimit="10" stroke-linecap="round" stroke-linejoin="round"/>
<path d="M294.529 415.368C295.368 414.453 296.555 414 297.706 413.603C302.046 412.107 306.505 410.992 311.023 410.276" stroke="#303030" stroke-width="1.5" stroke-miterlimit="10" stroke-linecap="round" stroke-linejoin="round"/>
<path d="M312.178 414.056C304.421 411.553 297.121 411.113 289.003 411.172" stroke="#303030" stroke-width="1.5" stroke-miterlimit="10" stroke-linecap="round" stroke-linejoin="round"/>
<path d="M290.851 408.653C296.405 406.097 303.051 404.306 309.057 403.391" stroke="#303030" stroke-width="1.5" stroke-miterlimit="10" stroke-linecap="round" stroke-linejoin="round"/>
<path d="M308.285 407.233C301.638 406.226 291.631 404.408 284.916 404.56" stroke="#303030" stroke-width="1.5" stroke-miterlimit="10" stroke-linecap="round" stroke-linejoin="round"/>
<path d="M174.795 137.465C175.223 136.705 176.073 136.174 176.94 136.271C176.013 135.666 175.669 134.317 176.192 133.342C176.715 132.367 178.03 131.908 179.047 132.346C178.436 131.873 177.527 130.163 178.778 128.558C179.956 127.047 181.975 128.483 182.03 128.417C182.03 128.417 179.643 124.438 179.147 123.638C178.206 122.117 177.839 121.42 177.59 120.289C177.303 118.985 178.436 117.98 179.695 118.604C181.039 119.271 181.754 120.519 182.912 122.074C184.33 123.977 186.61 127.423 188.367 129.645C189.329 130.862 189.639 131.43 189.952 131.343C190.612 131.159 190.322 129.424 190.158 128.708C189.907 127.614 189.574 126.501 189.725 125.368C189.833 124.558 190.663 123.542 191.583 123.843C191.803 123.915 191.984 124.075 192.138 124.248C192.906 125.111 193.276 126.602 193.719 127.665C194.248 128.937 194.729 130.23 195.158 131.539C195.751 133.347 196.307 135.134 197.149 137.023C197.99 138.912 199.877 140.792 201.082 141.709C206.18 145.591 210.432 147.938 216.003 151.059C222.057 144.138 228.643 136.137 232.694 131.345C236.741 126.558 238.727 125.037 241.27 124.238C243.933 123.401 245.423 123.021 248.768 122.523C252.305 128.249 250.465 140.322 241.439 153.148C238.759 156.955 233.443 163.028 230.441 165.986C227.438 168.944 220.622 177.213 211.451 170.656C201.126 163.274 194.791 154.753 191.672 152.189C188.553 149.625 184.825 147.537 181.337 145.192C179.863 144.201 178.479 143.077 177.075 141.991C175.884 141.07 174.27 139.944 174.531 138.22C174.571 137.955 174.663 137.699 174.795 137.465Z" fill="#FDCECA"/>
<path d="M186.867 134.864C186.43 138.61 188.752 141.236 190.717 143.142" stroke="#303030" stroke-width="1.5" stroke-miterlimit="10" stroke-linecap="round" stroke-linejoin="round"/>
<path d="M179.859 132.805C180.995 133.665 182.203 134.428 183.468 135.084C184.761 135.755 185.859 136.189 186.548 135.404C187.237 134.619 187.097 133.427 186.407 132.558C185.408 131.3 183.64 129.663 182.032 128.416" stroke="#303030" stroke-width="1.5" stroke-miterlimit="10" stroke-linecap="round" stroke-linejoin="round"/>
<path d="M177.746 137.212C178.882 138.072 180.09 138.835 181.355 139.491C182.648 140.162 183.746 140.596 184.435 139.811C185.124 139.026 184.984 137.834 184.294 136.965C183.295 135.706 181.527 134.07 179.919 132.823" stroke="#303030" stroke-width="1.5" stroke-miterlimit="10" stroke-linecap="round" stroke-linejoin="round"/>
<path d="M179.181 143.88C180.475 144.551 181.572 144.985 182.261 144.2C182.95 143.415 182.81 142.223 182.12 141.354C181.121 140.096 179.353 138.459 177.745 137.212" stroke="#303030" stroke-width="1.5" stroke-miterlimit="10" stroke-linecap="round" stroke-linejoin="round"/>
<path d="M216.015 151.062C218.485 152.834 220.479 155.508 221.711 157.983" stroke="#303030" stroke-width="1.5" stroke-miterlimit="10" stroke-linecap="round" stroke-linejoin="round"/>
<path d="M239.415 157.056C239.216 156.986 239.015 156.923 238.817 156.851C235.967 155.812 233.15 154.554 230.799 152.606C227.331 149.732 224.228 146.186 221.926 142.238C224.628 138.979 227.841 135.077 230.636 131.612C236.896 123.853 239.705 122.609 249.425 121.208C253.293 127.948 250.579 139.371 247.399 145.768C245.913 148.756 242.866 152.915 239.415 157.056Z" fill="#303030"/>
<path d="M255.087 81.6791C251.933 91.6731 258.963 102.801 270.79 106.534C282.617 110.267 294.762 105.191 297.916 95.1971C301.07 85.2031 294.04 74.0751 282.213 70.3421C270.387 66.6091 258.242 71.6851 255.087 81.6791Z" fill="#303030"/>
<path d="M259.127 88.2351C259.562 85.2661 259.935 83.4281 261.615 81.0041C267.054 73.1541 279.707 73.3001 288.623 79.3101C284.918 89.0621 291.975 96.1131 291.975 96.1131C290.932 97.7091 291.023 97.8671 290.402 99.6551C292.03 97.9021 294.347 96.6021 296.81 96.6541C299.273 96.7061 301.767 98.3841 302.168 100.711C302.564 103.012 300.819 105.3 298.554 106.137C296.289 106.974 293.322 106.749 290.788 105.116L290.785 105.114C289.666 107.064 287.608 108.919 284.83 110.117V119.638L289.976 121.519C289.976 121.519 277.055 141.365 263.604 139.131C250.353 136.93 262.642 119.439 262.642 119.439L268.798 118.284L270.274 111.359C265.641 110.05 260.247 107.937 257.598 100.968C256.379 97.7671 256.146 90.9151 259.127 88.2351Z" fill="#FDCECA"/>
<path d="M278.936 111.432C278.936 111.432 274.695 112.463 270.27 111.359L269.785 113.633C269.785 113.633 274.942 114.464 278.936 111.432Z" fill="#303030"/>
<path d="M273.48 85.9312C272.067 90.7072 269.356 91.1562 268.998 93.1212C268.67 94.9202 270.741 96.0221 271.729 96.2971" stroke="#303030" stroke-width="1.5" stroke-miterlimit="10" stroke-linecap="round" stroke-linejoin="round"/>
<path d="M269.174 105.734C269.134 105.919 269.101 106.105 269.076 106.293C269.082 106.249 269.088 106.204 269.094 106.16C269.069 106.348 269.051 106.536 269.041 106.725C269.034 106.858 268.99 106.983 268.895 107.079C268.808 107.166 268.666 107.231 268.541 107.225C268.412 107.219 268.278 107.177 268.187 107.079C268.1 106.984 268.033 106.858 268.041 106.725C268.065 106.303 268.121 105.882 268.21 105.469C268.235 105.35 268.337 105.23 268.44 105.17C268.547 105.107 268.705 105.081 268.825 105.12C269.094 105.207 269.233 105.46 269.174 105.734Z" fill="#303030"/>
<path d="M269.638 89.358C270.344 87.287 268.153 84.296 264.409 84.251C260.659 84.205 260.039 86.299 260.922 87.292C261.804 88.285 262.221 87.454 263.462 86.933C264.703 86.413 268.83 86.985 269.638 89.358Z" fill="#AD6163"/>
<path d="M269.355 89.6751C269.217 88.1251 268.053 86.7181 266.512 86.2391C264.971 85.7601 262.551 85.9921 261.645 88.0931C261.731 90.4321 266.557 92.2161 269.355 89.6751Z" fill="white"/>
<path d="M262.642 88.8741C262.923 90.0381 264.139 90.7501 265.36 90.4651C266.58 90.1801 267.342 89.0041 267.061 87.8401C266.78 86.6761 265.563 85.9641 264.343 86.2491C263.123 86.5351 262.361 87.7101 262.642 88.8741Z" fill="#303030"/>
<path d="M267.228 87.814L264.852 88.357L267.264 89.063L267.228 87.814Z" fill="white"/>
<path d="M261.647 88.0931C262.553 85.9921 264.973 85.7601 266.514 86.2391C268.054 86.7181 269.219 88.1261 269.357 89.6751" stroke="#303030" stroke-width="1.5" stroke-miterlimit="10" stroke-linecap="round" stroke-linejoin="round"/>
<path d="M260.562 86.3992C260.664 86.9102 261.1 87.3372 261.613 87.4292" stroke="#303030" stroke-width="1.5" stroke-miterlimit="10" stroke-linecap="round" stroke-linejoin="round"/>
<path d="M269.186 81.7371C266.94 81.0631 264.407 81.0361 262.547 82.1551" stroke="#303030" stroke-width="1.5" stroke-miterlimit="10" stroke-linecap="round" stroke-linejoin="round"/>
<path d="M276.336 89.5692C276.472 87.3852 279.636 85.4532 283.115 86.8362C286.6 88.2212 286.377 90.3932 285.183 90.9752C283.989 91.5582 283.921 90.6302 282.971 89.6772C282.02 88.7232 277.987 87.6832 276.336 89.5692Z" fill="#AD6163"/>
<path d="M284.211 91.8811C284.073 90.3311 282.909 88.9241 281.368 88.4451C279.827 87.9661 277.408 88.1981 276.501 90.2991C276.586 92.6381 281.412 94.4211 284.211 91.8811Z" fill="white"/>
<path d="M277.495 91.0792C277.776 92.2432 278.992 92.9551 280.213 92.6701C281.433 92.3851 282.195 91.2091 281.914 90.0451C281.633 88.8811 280.417 88.1692 279.197 88.4542C277.976 88.7402 277.214 89.9152 277.495 91.0792Z" fill="#303030"/>
<path d="M282.081 90.02L279.705 90.562L282.117 91.268L282.081 90.02Z" fill="white"/>
<path d="M276.501 90.2991C277.407 88.1981 279.827 87.9661 281.368 88.4451C282.909 88.9241 284.074 90.3311 284.211 91.8811" stroke="#303030" stroke-width="1.5" stroke-miterlimit="10" stroke-linecap="round" stroke-linejoin="round"/>
<path d="M285.746 90.552C285.339 91.03 284.65 91.247 284.042 91.089" stroke="#303030" stroke-width="1.5" stroke-miterlimit="10" stroke-linecap="round" stroke-linejoin="round"/>
<path d="M278.703 82.425C281.552 82.444 284.211 83.47 286.4 86.03" stroke="#303030" stroke-width="1.5" stroke-miterlimit="10" stroke-linecap="round" stroke-linejoin="round"/>
<path d="M273.193 100.733C271.917 100.752 270.357 100.94 269.857 102.032C269.275 100.667 268.288 100.235 268.288 100.235C268.288 100.235 269.527 99.616 270.834 99.809C272.141 100.001 273.193 100.733 273.193 100.733Z" fill="#303030"/>
<path d="M275.283 101.42C274.853 102.011 273.154 103.395 270.587 102.908C270.029 102.784 270.022 102.431 269.858 102.032C269.974 101.502 270.894 100.532 273.194 100.733C273.78 101.155 274.666 101.37 275.283 101.42Z" fill="#FF95FB" stroke="#303030" stroke-width="1.5" stroke-miterlimit="10" stroke-linecap="round" stroke-linejoin="round"/>
<path d="M273.895 101.05C273.895 101.05 273.777 101.525 273.012 101.563C272.247 101.601 270.633 101.318 270.118 100.968C269.603 100.617 269.51 99.8901 269.51 99.8901C269.51 99.8901 270.544 99.6061 271.203 99.8461C271.862 100.085 273.665 100.969 273.895 101.05Z" fill="white"/>
<path d="M267.051 100.225C268.321 100.335 269.568 99.6652 270.834 99.8082C271.821 99.9202 272.678 100.508 273.582 100.92C274.486 101.332 275.618 101.55 276.422 100.966" stroke="#303030" stroke-width="1.5" stroke-miterlimit="10" stroke-linecap="round" stroke-linejoin="round"/>
<path d="M268.17 100.265C268.986 100.749 269.634 101.384 269.955 102.277C270.007 102.422 270.082 102.77 270.586 102.907C271.512 103.16 274.109 103.028 275.336 101.348" stroke="#303030" stroke-width="1.5" stroke-miterlimit="10" stroke-linecap="round" stroke-linejoin="round"/>
<path d="M298.342 100.55C297.809 100.114 296.448 99.708 295.026 99.977C293.603 100.246 292.364 101.252 291.857 102.55" stroke="#303030" stroke-width="1.5" stroke-miterlimit="10" stroke-linecap="round" stroke-linejoin="round"/>
<path d="M295.848 101.885C295.455 101.567 294.051 100.726 292.571 101.388" stroke="#303030" stroke-width="1.5" stroke-miterlimit="10" stroke-linecap="round" stroke-linejoin="round"/>
<path d="M288.42 120.925L304.266 126.532C308.637 141.716 300.02 159.342 300.02 159.342C298.448 168.918 297.638 174.964 297.638 174.964C297.638 174.964 301.668 182.595 305.527 190.318C298.378 198.546 279.192 199.829 264.829 198.23C250.466 196.631 241.02 191.466 236.21 186.749C237.113 182.194 239.379 173.807 239.379 173.807C239.379 173.807 239.6 165.985 239.106 157.596C231.53 140.362 243.134 128.425 249.46 121.217L266.098 118.82C266.098 118.82 258.944 129.159 262.999 137.154C276.715 132.597 288.42 120.925 288.42 120.925Z" fill="#303030"/>
<path d="M289.459 169.667C287.981 168.949 286.251 168.702 284.655 168.974C284.256 169.042 283.847 168.868 283.732 168.45C283.633 168.09 283.854 167.596 284.256 167.527C286.297 167.179 288.353 167.466 290.216 168.371C290.58 168.548 290.678 169.067 290.485 169.397C290.267 169.769 289.824 169.844 289.459 169.667Z" fill="#303030"/>
<path d="M91.9001 45.6C94.3001 39.3 97.6001 33.5 102.5 28.8C122.1 9.70003 154.5 14.5 167.8 38.5C177.8 56.7 188.4 74.5 198.7 92.5C215.9 122.4 233.3 152.3 250.3 182.3C264.6 207.4 249.1 239.1 220.7 243.4C203.3 246 187 238 178 222.4C162.9 196.1 147.7 169.8 132.6 143.6C132.3 143 131.9 142.5 131.5 142C129.9 140.7 129.2 138.8 128.2 137.1C121.5 125.3 114.6 113.6 107.9 101.9C103.6 94.3 99.1001 86.8 94.8001 79.2C90.9001 72.4 89.1001 65 89.3001 57.2C89.6001 53.2 90.1001 49.2 91.9001 45.6Z" fill="#3C8BD9"/>
<path d="M91.9004 45.6001C91.0004 49.2001 90.2004 52.8001 90.0004 56.6001C89.7004 65.0001 91.8004 72.8001 96.0004 80.1001C107 99.0001 118 118 128.9 137C129.9 138.7 130.7 140.4 131.7 142C125.7 152.4 119.7 162.7 113.6 173.1C105.2 187.6 96.8004 202.2 88.3004 216.7C87.9004 216.7 87.8004 216.5 87.7004 216.2C87.6004 215.4 87.9004 214.7 88.1004 213.9C92.2004 198.9 88.8004 185.6 78.5004 174.2C72.2004 167.3 64.2004 163.4 55.0004 162.1C43.0004 160.4 32.4004 163.5 22.9004 171C21.2004 172.3 20.1004 174.2 18.1004 175.2C17.7004 175.2 17.5004 175 17.4004 174.7C22.2004 166.4 26.9004 158.1 31.7004 149.8C51.5004 115.4 71.3004 81.0001 91.2004 46.7001C91.4004 46.3001 91.7004 46.0001 91.9004 45.6001Z" fill="#FABC04"/>
<path d="M17.8001 175C19.7001 173.3 21.5001 171.5 23.5001 169.9C47.8001 150.7 84.3001 164.6 89.6001 195C90.9001 202.3 90.2001 209.3 88.0001 216.3C87.9001 216.9 87.8001 217.4 87.6001 218C86.7001 219.6 85.9001 221.3 84.9001 222.9C76.0001 237.6 62.9001 244.9 45.7001 243.8C26.0001 242.4 10.5001 227.6 7.80013 208C6.50013 198.5 8.40013 189.6 13.3001 181.4C14.3001 179.6 15.5001 178 16.6001 176.2C17.1001 175.8 16.9001 175 17.8001 175Z" fill="#34A852"/>
<path d="M17.7991 175C17.3991 175.4 17.3991 176.1 16.6991 176.2C16.5991 175.5 16.9991 175.1 17.3991 174.6L17.7991 175Z" fill="#FABC04"/>
<path d="M87.5993 218C87.1993 217.3 87.5993 216.8 87.9993 216.3C88.0993 216.4 88.2993 216.6 88.3993 216.7L87.5993 218Z" fill="#E1C025"/>
<path d="M26.7 277.4C15.4 277.4 6 286.5 6 297.7C6 308.9 15.4 317.9 26.7 317.9C32.8 317.9 37.3 315.9 40.9 312.2C44.6 308.5 45.7 303.4 45.7 299.3C45.7 298 45.6 296.8 45.4 295.8H26.7V301.3H40C39.6 304.4 38.6 306.7 37 308.3C35.1 310.2 32 312.4 26.7 312.4C18.5 312.4 12.1 305.8 12.1 297.7C12.1 289.6 18.5 283 26.7 283C31.1 283 34.4 284.7 36.7 287L40.6 283.1C37.3 279.9 32.9 277.4 26.7 277.4ZM60.6 291.9C53.5 291.9 47.6 297.4 47.6 305.1C47.6 312.7 53.4 318.3 60.6 318.3C67.8 318.3 73.6 312.7 73.6 305.1C73.6 297.5 67.7 291.9 60.6 291.9ZM60.6 313.1C56.7 313.1 53.3 309.8 53.3 305.1C53.3 300.4 56.7 297.1 60.6 297.1C64.5 297.1 67.9 300.3 67.9 305.1C67.9 309.8 64.5 313.1 60.6 313.1ZM88.8 291.9C81.6 291.9 75.8 297.4 75.8 305.1C75.8 312.7 81.6 318.3 88.8 318.3C95.9 318.3 101.8 312.7 101.8 305.1C101.8 297.5 96 291.9 88.8 291.9ZM88.8 313.1C84.9 313.1 81.5 309.8 81.5 305.1C81.5 300.4 84.9 297.1 88.8 297.1C92.7 297.1 96.1 300.3 96.1 305.1C96.1 309.8 92.8 313.1 88.8 313.1ZM116.9 291.9C110.4 291.9 104.5 297.6 104.5 305C104.5 312.3 110.4 318 116.9 318C120 318 122.4 316.6 123.7 315H123.9V316.9C123.9 321.9 121.3 324.6 117 324.6C113.5 324.6 111.4 322.1 110.5 320L105.5 322.1C106.9 325.6 110.7 329.8 117 329.8C123.7 329.8 129.3 325.8 129.3 316.2V292.8H123.9V294.9H123.7C122.4 293.3 120 291.9 116.9 291.9ZM117.4 312.9C113.5 312.9 110.2 309.6 110.2 305C110.2 300.4 113.5 297 117.4 297C121.3 297 124.3 300.4 124.3 305C124.3 309.6 121.3 312.9 117.4 312.9ZM133.5 279H139.2V317.6H133.5V279ZM154.5 291.9C147.7 291.9 142 297.2 142 305.1C142 312.5 147.6 318.3 155.1 318.3C161.2 318.3 164.7 314.6 166.1 312.5L161.6 309.5C160.1 311.7 158 313.1 155.1 313.1C152.1 313.1 150 311.8 148.7 309.1L166.4 301.8L165.8 300.3C164.7 297.4 161.3 291.9 154.5 291.9ZM147.7 304.7C147.5 299.6 151.7 297 154.6 297C156.9 297 158.9 298.1 159.5 299.8L147.7 304.7Z" fill="#757575"/>
<path d="M176.4 317L189.6 281.9H194.7L207.9 317H202.9L199.5 307.5H184.8L181.4 317H176.4ZM186.3 303.3H198L192.3 287.5H192.1L186.3 303.3Z" fill="#757575"/>
<path d="M212.499 314.1C210.299 311.6 209.199 308.6 209.199 305C209.199 301.5 210.299 298.5 212.499 295.9C214.799 293.4 217.399 292.2 220.599 292.2C222.399 292.2 223.999 292.6 225.399 293.3C226.899 294.1 227.999 295 228.799 296.3H228.999L228.799 293V281.9H233.299V317H228.999V313.7H228.799C227.999 314.9 226.899 315.9 225.399 316.7C223.899 317.5 222.299 317.8 220.599 317.8C217.399 317.8 214.699 316.6 212.499 314.1ZM226.699 311.3C228.199 309.7 228.899 307.6 228.899 305C228.899 302.5 228.199 300.4 226.699 298.8C225.299 297.2 223.499 296.4 221.299 296.4C219.099 296.4 217.299 297.2 215.899 298.8C214.399 300.4 213.699 302.5 213.699 305C213.699 307.5 214.399 309.6 215.899 311.2C217.399 312.8 219.199 313.6 221.299 313.6C223.499 313.7 225.299 312.9 226.699 311.3Z" fill="#757575"/>
<path d="M254.1 315.6C252.3 317 250 317.8 247.2 317.8C244.8 317.8 242.7 317.2 240.8 315.9C239 314.6 237.7 313 236.9 310.9L240.9 309.2C241.5 310.6 242.3 311.8 243.5 312.6C244.6 313.4 245.9 313.8 247.2 313.8C248.6 313.8 249.8 313.5 250.8 312.9C251.8 312.3 252.2 311.5 252.2 310.7C252.2 309.2 251 308 248.7 307.3L244.6 306.3C239.9 305.1 237.6 302.9 237.6 299.5C237.6 297.3 238.5 295.6 240.3 294.2C242.1 292.9 244.4 292.2 247.1 292.2C249.2 292.2 251.1 292.7 252.9 293.7C254.6 294.7 255.8 296.1 256.5 297.8L252.5 299.5C252 298.5 251.3 297.7 250.3 297.1C249.3 296.5 248.1 296.2 246.8 296.2C245.6 296.2 244.6 296.5 243.6 297.1C242.7 297.7 242.2 298.4 242.2 299.3C242.2 300.7 243.5 301.7 246.1 302.2L249.7 303.1C254.5 304.3 256.8 306.7 256.8 310.3C256.9 312.4 255.9 314.2 254.1 315.6Z" fill="#757575"/>
<path d="M299.617 133.353C296.984 136.237 295.367 139.891 294.04 143.52C292.494 147.748 291.274 152.087 289.782 156.334C289.464 157.239 288.014 156.849 288.336 155.935C289.874 151.559 291.119 147.083 292.736 142.736C294.131 138.987 295.834 135.275 298.557 132.293C299.209 131.578 300.267 132.641 299.617 133.353Z" fill="#00826F"/>
<path d="M241.244 179.418C241.364 178.554 241.961 177.749 242.803 177.522C241.719 177.298 240.905 176.168 241.035 175.07C241.165 173.971 242.221 173.062 243.327 173.098C242.586 172.881 241.114 171.622 241.691 169.671C242.234 167.834 244.639 168.431 244.666 168.35C244.666 168.35 240.988 165.52 240.234 164.957C238.801 163.886 238.205 163.372 237.559 162.41C236.815 161.302 237.501 159.952 238.901 160.072C240.396 160.201 241.518 161.101 243.165 162.124C245.181 163.376 248.564 165.749 251.012 167.173C252.353 167.954 252.849 168.369 253.109 168.174C253.656 167.761 252.751 166.252 252.336 165.646C251.702 164.72 250.985 163.806 250.711 162.696C250.515 161.903 250.916 160.653 251.882 160.597C252.113 160.583 252.34 160.666 252.547 160.771C253.577 161.293 254.467 162.545 255.269 163.372C256.226 164.362 257.147 165.389 258.025 166.451C259.239 167.916 260.41 169.376 261.885 170.826C263.359 172.276 265.803 173.335 267.26 173.747C273.425 175.494 278.241 176.122 284.568 176.988C287.669 168.332 290.87 158.475 292.886 152.533C294.901 146.597 296.192 144.455 298.267 142.781C300.439 141.027 301.686 140.128 304.617 138.441C310.004 142.475 312.71 154.384 309.004 169.623C307.903 174.147 305.178 181.744 303.467 185.596C301.755 189.447 298.438 199.637 287.504 196.891C275.193 193.8 266.179 188.189 262.338 186.944C258.497 185.699 254.264 185.12 250.16 184.215C248.425 183.832 246.726 183.292 245.022 182.795C243.577 182.374 241.662 181.917 241.274 180.217C241.215 179.956 241.207 179.684 241.244 179.418Z" fill="#FDCECA"/>
<path d="M313.083 163.706C306.243 164.39 293.088 161.241 289.058 157.056C289.058 157.056 291.714 149.074 292.874 145.91C295.683 138.249 299.214 131.154 304.267 126.532C313.152 129.834 316.656 135.206 316.617 141.706C316.578 148.292 315.123 154.928 313.083 163.706Z" fill="#303030"/>
</g>
</g>
<defs>
<filter id="filter0_d_851_33" x="-2" y="9.03296" width="345.355" height="460.77" filterUnits="userSpaceOnUse" color-interpolation-filters="sRGB">
<feFlood flood-opacity="0" result="BackgroundImageFix"/>
<feColorMatrix in="SourceAlpha" type="matrix" values="0 0 0 0 0 0 0 0 0 0 0 0 0 0 0 0 0 0 127 0" result="hardAlpha"/>
<feOffset dx="4" dy="4"/>
<feGaussianBlur stdDeviation="6"/>
<feComposite in2="hardAlpha" operator="out"/>
<feColorMatrix type="matrix" values="0 0 0 0 0 0 0 0 0 0 0 0 0 0 0 0 0 0 0.25 0"/>
<feBlend mode="normal" in2="BackgroundImageFix" result="effect1_dropShadow_851_33"/>
<feBlend mode="normal" in="SourceGraphic" in2="effect1_dropShadow_851_33" result="shape"/>
</filter>
<clipPath id="clip0_851_33">
<rect width="364" height="500" fill="white" transform="matrix(-1 0 0 1 364 0)"/>
</clipPath>
</defs>
</svg>
