<svg width="277" height="76" viewBox="0 0 277 76" fill="none" xmlns="http://www.w3.org/2000/svg">
<path d="M52.5562 69.7378L52.4063 69.5584H52.3844L2.34887 11.8434H274.653L224.623 69.5584H224.601L224.451 69.7377C224.355 69.8529 224.132 70.0157 223.717 70.204C223.313 70.3868 222.774 70.5731 222.099 70.7601C220.748 71.1338 218.899 71.4975 216.595 71.8455C211.988 72.5411 205.611 73.1666 197.87 73.6913C182.393 74.7404 161.501 75.384 138.504 75.384C115.506 75.384 94.614 74.7402 79.1363 73.6909C71.396 73.1662 65.0185 72.5406 60.4119 71.8451C58.1072 71.4971 56.2581 71.1335 54.9081 70.7598C54.2325 70.5728 53.6939 70.3866 53.2904 70.2039C52.8746 70.0156 52.6524 69.8529 52.5562 69.7378Z" fill="#337FEE" stroke="#337FEE"/>
<path d="M275.5 10.7421C275.5 10.8308 275.434 11.0367 275.002 11.3416C274.588 11.6337 273.94 11.9421 273.041 12.257C271.25 12.8845 268.582 13.498 265.111 14.0863C258.177 15.2617 248.127 16.3225 235.691 17.2141C210.824 18.9969 176.462 20.1001 138.5 20.1001C100.538 20.1001 66.1759 18.9969 41.3086 17.2141C28.8726 16.3225 18.8232 15.2617 11.889 14.0863C8.41816 13.498 5.74999 12.8845 3.95884 12.257C3.06006 11.9421 2.41211 11.6337 1.99826 11.3416C1.56639 11.0367 1.5 10.8308 1.5 10.7421C1.5 10.6535 1.56639 10.4475 1.99826 10.1426C2.41211 9.85048 3.06006 9.54214 3.95884 9.22724C5.74999 8.59968 8.41816 7.9862 11.889 7.39787C18.8232 6.22249 28.8726 5.16172 41.3086 4.27012C66.1759 2.48725 100.538 1.38403 138.5 1.38403C176.462 1.38403 210.824 2.48725 235.691 4.27012C248.127 5.16172 258.177 6.22249 265.111 7.39787C268.582 7.9862 271.25 8.59968 273.041 9.22724C273.94 9.54214 274.588 9.85048 275.002 10.1426C275.434 10.4475 275.5 10.6535 275.5 10.7421Z" fill="#337FEE" stroke="white"/>
<path d="M276 10.7421C276 16.1865 214.438 20.6001 138.5 20.6001C62.5615 20.6001 1 16.1865 1 10.7421" stroke="white" stroke-width="1.5" stroke-miterlimit="10" stroke-linecap="round" stroke-linejoin="round"/>
<path d="M250.2 10.5706C250.2 10.5705 250.199 10.5717 250.197 10.5739C250.199 10.5717 250.2 10.5706 250.2 10.5706ZM248.268 10.3216C249.002 10.4661 249.533 10.6081 249.873 10.7421C249.533 10.8762 249.002 11.0181 248.268 11.1627C246.799 11.452 244.616 11.7341 241.783 12.0042C236.122 12.5438 227.921 13.0306 217.777 13.4396C197.492 14.2577 169.464 14.7639 138.502 14.7639C107.539 14.7639 79.5112 14.2579 59.2263 13.44C49.0825 13.031 40.8819 12.5443 35.2209 12.0046C32.3878 11.7345 30.2046 11.4524 28.7358 11.1629C28.0019 11.0183 27.4702 10.8763 27.1304 10.7422C27.4702 10.6081 28.0019 10.4662 28.7358 10.3216C30.2046 10.0322 32.3878 9.7501 35.2209 9.48004C40.8819 8.94039 49.0825 8.45362 59.2263 8.04456C79.5112 7.22655 107.539 6.72034 138.502 6.72034C169.464 6.72034 197.492 7.22655 217.777 8.04456C227.921 8.45362 236.122 8.94039 241.783 9.48004C244.616 9.7501 246.799 10.0322 248.268 10.3216ZM26.8034 10.5707C26.8035 10.5707 26.8047 10.5718 26.8067 10.574C26.8043 10.5718 26.8033 10.5707 26.8034 10.5707ZM26.8034 10.9137C26.8033 10.9137 26.8043 10.9126 26.8067 10.9103C26.8047 10.9126 26.8035 10.9137 26.8034 10.9137ZM250.197 10.9104C250.199 10.9125 250.2 10.9136 250.2 10.9137C250.2 10.9137 250.199 10.9126 250.197 10.9104Z" fill="white" stroke="white"/>
</svg>
