<svg width="102" height="61" viewBox="0 0 102 61" fill="none" xmlns="http://www.w3.org/2000/svg">
<path d="M30.9672 58.5676C30.921 58.5356 30.9031 58.516 30.8994 58.5119L30.7609 58.2594H30.7531L1.96416 7.2406H100.04L71.2469 58.2594H71.239L71.1006 58.5119C71.0969 58.516 71.079 58.5356 71.0328 58.5676C70.9663 58.6137 70.8647 58.6692 70.7197 58.7307C70.4296 58.8537 70.0157 58.9799 69.4782 59.1043C68.4064 59.3523 66.9089 59.5783 65.0753 59.7689C61.412 60.1496 56.4587 60.384 51 60.384C45.5413 60.384 40.5879 60.1496 36.9247 59.7689C35.0911 59.5783 33.5935 59.3523 32.5217 59.1043C31.9843 58.9799 31.5704 58.8537 31.2803 58.7307C31.1353 58.6692 31.0337 58.6137 30.9672 58.5676Z" fill="#124FA9" stroke="#124FA9"/>
<path d="M100.5 6.38308C100.5 6.40813 100.491 6.48029 100.374 6.60619C100.256 6.73464 100.055 6.88579 99.7475 7.05102C99.1337 7.3809 98.1966 7.71433 96.9449 8.0398C94.4496 8.68866 90.8164 9.27801 86.3007 9.77463C77.2757 10.7672 64.7948 11.3822 51 11.3822C37.2052 11.3822 24.7243 10.7672 15.6993 9.77463C11.1836 9.27801 7.55042 8.68866 5.05509 8.0398C3.80344 7.71433 2.86628 7.3809 2.25255 7.05102C1.94515 6.88579 1.74409 6.73464 1.6255 6.60619C1.50925 6.48029 1.5 6.40813 1.5 6.38308C1.5 6.35802 1.50925 6.28587 1.6255 6.15996C1.74409 6.03152 1.94515 5.88036 2.25255 5.71514C2.86628 5.38526 3.80344 5.05183 5.05509 4.72636C7.55042 4.0775 11.1836 3.48816 15.6993 2.99154C24.7243 1.999 37.2052 1.38403 51 1.38403C64.7954 1.38403 77.2763 1.999 86.3011 2.99154C90.8168 3.48816 94.4499 4.0775 96.9451 4.72636C98.1967 5.05182 99.1338 5.38526 99.7475 5.71513C100.055 5.88036 100.256 6.03151 100.375 6.15995C100.491 6.28585 100.5 6.35801 100.5 6.38308Z" fill="#124FA9" stroke="white"/>
<path d="M101 6.38307C101 9.42046 78.6142 11.8821 51 11.8821C23.3858 11.8821 1 9.42046 1 6.38307" stroke="white" stroke-miterlimit="10" stroke-linecap="round" stroke-linejoin="round"/>
<path d="M87.8257 6.15706C87.8263 6.15711 87.8228 6.16058 87.8132 6.16731C87.8203 6.16037 87.8251 6.15701 87.8257 6.15706ZM85.2379 5.99928C86.1174 6.12537 86.7912 6.25468 87.2513 6.38308C86.7912 6.51149 86.1174 6.64079 85.2379 6.76688C83.374 7.03409 80.6636 7.27639 77.2991 7.48043C70.5741 7.88826 61.2763 8.1409 51.0012 8.1409C40.7261 8.1409 31.4283 7.88826 24.7033 7.48043C21.3388 7.27639 18.6284 7.03409 16.7645 6.76688C15.885 6.64079 15.2112 6.51149 14.7511 6.38308C15.2112 6.25467 15.885 6.12537 16.7645 5.99928C18.6284 5.73208 21.3388 5.48978 24.7033 5.28575C31.4283 4.87793 40.7261 4.62529 51.0012 4.62529C61.2763 4.62529 70.5741 4.87793 77.2991 5.28575C80.6636 5.48978 83.374 5.73208 85.2379 5.99928ZM14.1767 6.15706C14.1773 6.157 14.1821 6.16037 14.1892 6.16733C14.1796 6.16061 14.1761 6.15712 14.1767 6.15706ZM14.1767 6.6091C14.1761 6.60904 14.1796 6.60556 14.1892 6.59883C14.1821 6.60579 14.1773 6.60916 14.1767 6.6091ZM87.8133 6.59885C87.8228 6.60557 87.8263 6.60904 87.8257 6.6091C87.8251 6.60916 87.8203 6.60579 87.8133 6.59885Z" fill="white" stroke="white"/>
<path d="M59.356 37.7077C57.8224 34.5164 53.8586 33.7409 50.7155 32.5928C50.0248 32.3408 49.4714 32.0499 49.0552 31.7221C48.2114 31.111 48.1913 29.6584 49.1799 29.1729C50.5318 28.4665 52.8236 28.7107 54.166 29.5397C55.3299 30.2023 56.8581 30.0885 57.7823 29.1583C59.0043 27.9275 58.6473 25.9339 57.0176 25.1702C55.802 24.5981 54.5061 24.2497 53.1215 24.0824C53.113 24.0814 53.1077 24.0756 53.1077 24.0678C53.0898 24.061 53.1394 20.9903 53.0919 21.0001H48.6613C48.6117 20.9826 48.6634 24.1943 48.6455 24.1991C47.9526 24.3714 47.2482 24.5387 46.6282 24.815C43.8611 25.9943 42.3402 28.1853 42.3613 31.0643C42.2684 35.2354 45.5815 37.0548 49.3415 38.2184C50.1621 38.4704 50.912 38.7341 51.59 39.0075C52.756 39.5222 53.8893 40.0768 53.8935 41.3261C53.8523 42.8536 52.247 43.2545 50.6089 43.2662C49.4186 43.2662 48.3424 43.0365 47.3781 42.5754C47.0581 42.4226 46.7444 42.2494 46.437 42.0558C45.2974 41.3387 43.7671 41.4681 42.8049 42.3788C41.5703 43.5473 41.7804 45.4796 43.2675 46.3631C44.9172 47.336 46.5585 47.7972 48.6317 47.9743C48.675 47.9733 48.6317 50.9652 48.6465 50.9798C48.6423 51.0245 53.0771 50.9788 53.0929 50.9943C53.1024 50.9943 53.1088 50.9875 53.1088 50.9798C53.1215 50.9652 53.0835 47.8021 53.1225 47.8011C57.1993 47.1599 60.0562 44.7334 59.9992 40.7326C59.9992 39.5495 59.7848 38.5415 59.356 37.7077Z" fill="white"/>
</svg>
