<svg width="382" height="96" viewBox="0 0 382 96" fill="none" xmlns="http://www.w3.org/2000/svg">
<path d="M53.1523 84.9355L53.0022 84.7423H52.9719L2.43726 18.0412H379.563L329.028 84.7423H328.998L328.848 84.9355C328.626 85.2204 328.198 85.5464 327.511 85.8948C326.832 86.2385 325.942 86.584 324.843 86.9279C322.644 87.6155 319.655 88.282 315.948 88.9184C308.536 90.1908 298.31 91.3339 285.919 92.2923C261.141 94.209 227.748 95.384 190.999 95.384C154.25 95.384 120.858 94.209 96.0799 92.2923C83.6894 91.3339 73.4631 90.1908 66.0519 88.9184C62.3449 88.282 59.3556 87.6155 57.157 86.9279C56.0574 86.584 55.1675 86.2385 54.4892 85.8948C53.8018 85.5464 53.3738 85.2204 53.1523 84.9355Z" fill="#579AFE" stroke="#579AFE"/>
<path d="M380.498 16.4838C380.498 16.8009 380.303 17.205 379.703 17.69C379.11 18.1692 378.198 18.6639 376.952 19.1637C374.466 20.1614 370.77 21.1338 365.972 22.0652C356.384 23.9263 342.493 25.6052 325.308 27.0162C290.942 29.8378 243.457 31.5836 190.999 31.5836C138.542 31.5836 91.056 29.8378 56.6904 27.0162C39.505 25.6052 25.614 23.9263 16.0264 22.0652C11.2286 21.1338 7.53278 20.1614 5.0463 19.1637C3.80054 18.6639 2.88796 18.1692 2.2953 17.69C1.69537 17.205 1.5 16.8009 1.5 16.4838C1.5 16.1668 1.69537 15.7627 2.2953 15.2777C2.88796 14.7985 3.80054 14.3038 5.0463 13.804C7.53278 12.8063 11.2286 11.8339 16.0264 10.9025C25.614 9.04142 39.505 7.36244 56.6904 5.95144C91.056 3.12986 138.542 1.38403 190.999 1.38403C243.457 1.38403 290.942 3.12986 325.308 5.95144C342.493 7.36244 356.384 9.04142 365.972 10.9025C370.77 11.8339 374.466 12.8063 376.952 13.804C378.198 14.3038 379.11 14.7985 379.703 15.2777C380.303 15.7627 380.498 16.1668 380.498 16.4838Z" fill="#579AFE" stroke="white"/>
<path d="M381 16.4839C381 25.0998 295.934 32.0837 190.999 32.0837C86.0657 32.0837 1 25.0998 1 16.4839" stroke="white" stroke-width="1.5" stroke-miterlimit="10" stroke-linecap="round" stroke-linejoin="round"/>
<path d="M353.639 16.4838C353.639 16.493 353.637 16.5443 353.549 16.6454C353.458 16.7498 353.3 16.8782 353.047 17.023C352.543 17.3126 351.76 17.6146 350.687 17.9204C348.549 18.53 345.371 19.1237 341.25 19.6919C333.014 20.8275 321.084 21.8517 306.327 22.7124C276.817 24.4334 236.042 25.4982 190.999 25.4982C145.956 25.4982 105.181 24.4334 75.671 22.7124C60.9141 21.8517 48.9838 20.8275 40.748 19.6919C36.6267 19.1237 33.4495 18.53 31.3108 17.9204C30.2377 17.6146 29.4549 17.3126 28.9506 17.023C28.6984 16.8782 28.5397 16.7498 28.449 16.6454C28.3612 16.5443 28.3594 16.493 28.3594 16.4838C28.3594 16.4746 28.3612 16.4233 28.449 16.3222C28.5397 16.2179 28.6984 16.0895 28.9506 15.9446C29.4549 15.655 30.2377 15.3531 31.3108 15.0472C33.4495 14.4376 36.6267 13.844 40.748 13.2757C48.9838 12.1401 60.9141 11.1159 75.671 10.2553C105.181 8.53423 145.956 7.46942 190.999 7.46942C236.042 7.46942 276.817 8.53423 306.327 10.2553C321.084 11.1159 333.014 12.1401 341.25 13.2757C345.371 13.844 348.549 14.4376 350.687 15.0472C351.76 15.3531 352.543 15.655 353.047 15.9446C353.3 16.0895 353.458 16.2179 353.549 16.3222C353.637 16.4233 353.639 16.4746 353.639 16.4838Z" fill="white" stroke="white"/>
</svg>
