<svg width="172" height="61" viewBox="0 0 172 61" fill="none" xmlns="http://www.w3.org/2000/svg">
<path d="M33.0539 55.9523L32.9062 55.7236H32.8906L2.09352 9.75156H169.908L139.114 55.7236H139.098L138.951 55.9522C138.907 56.0197 138.795 56.132 138.554 56.273C138.321 56.4098 138.002 56.5531 137.593 56.6997C136.775 56.9926 135.646 57.2807 134.227 57.558C131.392 58.1119 127.46 58.6114 122.679 59.0308C113.12 59.8693 100.214 60.384 86.0022 60.384C71.7909 60.384 58.8837 59.8691 49.3251 59.0305C44.5441 58.6111 40.6119 58.1116 37.777 57.5577C36.358 57.2804 35.2289 56.9924 34.4111 56.6994C34.002 56.5529 33.6835 56.4096 33.4502 56.2729C33.2097 56.1319 33.0974 56.0196 33.0539 55.9523Z" fill="#337FEE" stroke="#337FEE"/>
<path d="M170.5 8.77049C170.5 8.84652 170.46 8.99169 170.224 9.2077C169.989 9.4224 169.611 9.6579 169.067 9.90451C167.982 10.3961 166.353 10.8825 164.213 11.3519C159.942 12.2888 153.742 13.1362 146.058 13.8492C130.696 15.2745 109.462 16.1569 86 16.1569C62.5383 16.1569 41.3044 15.2745 25.9421 13.8492C18.2581 13.1362 12.0581 12.2888 7.78685 11.3519C5.6472 10.8825 4.01768 10.3961 2.93337 9.90451C2.38949 9.6579 2.01111 9.4224 1.77609 9.2077C1.53967 8.99169 1.5 8.84652 1.5 8.77049C1.5 8.69447 1.53967 8.54929 1.77609 8.33329C2.01111 8.11858 2.38949 7.88308 2.93337 7.63648C4.01768 7.14483 5.6472 6.65847 7.78685 6.18912C12.0581 5.25218 18.2581 4.40472 25.9421 3.69179C41.3044 2.26644 62.5383 1.38403 86 1.38403C109.462 1.38403 130.696 2.26644 146.058 3.69179C153.742 4.40472 159.942 5.25218 164.213 6.18912C166.353 6.65847 167.982 7.14483 169.067 7.63648C169.611 7.88308 169.989 8.11858 170.224 8.33329C170.46 8.54929 170.5 8.69447 170.5 8.77049Z" fill="#337FEE" stroke="white"/>
<path d="M171 8.77049C171 13.126 132.944 16.6569 86 16.6569C39.0562 16.6569 1 13.126 1 8.77049" stroke="white" stroke-width="1.5" stroke-miterlimit="10" stroke-linecap="round" stroke-linejoin="round"/>
<path d="M153.793 8.5261C154.129 8.61185 154.387 8.69432 154.573 8.7705C154.387 8.84667 154.129 8.92914 153.793 9.01489C152.901 9.24233 151.564 9.46643 149.816 9.68211C146.325 10.1127 141.263 10.5017 134.994 10.8289C122.46 11.483 105.138 11.8879 86.001 11.8879C66.8636 11.8879 49.5418 11.4832 37.0079 10.8292C30.7392 10.5021 25.6769 10.1131 22.1865 9.68244C20.4382 9.46674 19.1015 9.24261 18.2095 9.01512C17.873 8.92931 17.6153 8.8468 17.4287 8.77057C17.6153 8.69437 17.873 8.61189 18.2094 8.5261C19.1015 8.29866 20.4382 8.07456 22.1865 7.85888C25.6769 7.42828 30.7392 7.03924 37.0079 6.7121C49.5418 6.05799 66.8636 5.65308 86.001 5.65308C105.138 5.65308 122.46 6.05799 134.994 6.7121C141.263 7.03924 146.325 7.42828 149.816 7.85888C151.564 8.07456 152.901 8.29866 153.793 8.5261Z" fill="white" stroke="white"/>
</svg>
