<svg width="502" height="115" viewBox="0 0 502 115" fill="none" xmlns="http://www.w3.org/2000/svg">
<path d="M54.5437 98.2362L54.5319 98.2153L54.5181 98.1957L2.50316 23.9361H499.559L447.441 98.2761H447.438L447.287 98.4752C446.924 98.9572 446.264 99.4746 445.264 100.011C444.272 100.543 442.982 101.074 441.401 101.6C438.239 102.653 433.96 103.671 428.669 104.642C418.091 106.583 403.526 108.326 385.9 109.787C350.651 112.709 303.2 114.5 251 114.5C198.8 114.5 151.349 112.709 116.1 109.787C98.4742 108.326 83.9094 106.583 73.3312 104.642C68.0407 103.671 63.761 102.653 60.5993 101.6C59.0182 101.074 57.7283 100.543 56.736 100.011C55.7601 99.4875 55.1077 98.9821 54.7395 98.5101L54.7388 98.5087L54.7109 98.4718L54.6934 98.4486C54.6209 98.3526 54.5759 98.2931 54.5437 98.2362Z" fill="#74ABFB" stroke="#74ABFB"/>
<path d="M500.5 22.0584C500.5 22.6135 500.183 23.2402 499.381 23.9363C498.584 24.6295 497.367 25.336 495.723 26.0448C492.439 27.4607 487.567 28.8377 481.252 30.1551C468.63 32.7881 450.347 35.1627 427.733 37.158C382.51 41.1482 320.026 43.6168 251 43.6168C181.974 43.6168 119.49 41.1482 74.2673 37.158C51.6533 35.1627 33.3703 32.7881 20.7483 30.1551C14.4333 28.8377 9.56075 27.4607 6.27709 26.0448C4.63319 25.336 3.4165 24.6295 2.61865 23.9363C1.81737 23.2402 1.5 22.6135 1.5 22.0584C1.5 21.5033 1.81737 20.8767 2.61865 20.1805C3.4165 19.4873 4.63319 18.7808 6.27709 18.072C9.56075 16.6561 14.4333 15.2791 20.7483 13.9618C33.3703 11.3287 51.6533 8.95414 74.2673 6.95883C119.49 2.96869 181.974 0.5 251 0.5C320.026 0.5 382.51 2.96869 427.733 6.95883C450.347 8.95414 468.63 11.3287 481.252 13.9618C487.567 15.2791 492.439 16.6561 495.723 18.072C497.367 18.7808 498.584 19.4873 499.381 20.1805C500.183 20.8767 500.5 21.5033 500.5 22.0584Z" fill="#74ABFB" stroke="white"/>
<path d="M501 22.0584C501 34.2405 389.072 44.1168 251 44.1168C112.928 44.1168 1 34.2405 1 22.0584" stroke="white" stroke-width="1.5" stroke-miterlimit="10" stroke-linecap="round" stroke-linejoin="round"/>
<path d="M485.126 22.0584C485.126 22.349 484.904 22.7654 484.135 23.2828C483.389 23.7847 482.247 24.2989 480.701 24.8153C477.614 25.846 473.037 26.8476 467.108 27.8055C455.258 29.7199 438.096 31.4461 416.871 32.8964C374.427 35.7967 315.783 37.5911 251 37.5911C186.218 37.5911 127.573 35.7967 85.1288 32.8964C63.9045 31.4461 46.7423 29.7199 34.8923 27.8055C28.9636 26.8476 24.386 25.846 21.2996 24.8153C19.7531 24.2989 18.6109 23.7847 17.865 23.2828C17.096 22.7654 16.8745 22.349 16.8745 22.0584C16.8745 21.7678 17.096 21.3514 17.865 20.834C18.6109 20.3321 19.7531 19.818 21.2996 19.3015C24.386 18.2709 28.9636 17.2692 34.8923 16.3114C46.7423 14.3969 63.9045 12.6708 85.1288 11.2205C127.573 8.32013 186.218 6.52579 251 6.52579C315.783 6.52579 374.427 8.32013 416.871 11.2205C438.096 12.6708 455.258 14.3969 467.108 16.3114C473.037 17.2692 477.614 18.2709 480.701 19.3015C482.247 19.818 483.389 20.3321 484.135 20.834C484.904 21.3514 485.126 21.7678 485.126 22.0584Z" fill="white" stroke="white"/>
</svg>
