<svg width="1440" height="706" viewBox="0 0 1440 706" fill="none" xmlns="http://www.w3.org/2000/svg">
<path d="M1440 249.51L1380.06 283.77C1319.94 318.033 1200.06 386.557 1080 409.681C986.017 427.951 889.346 421.214 795.17 437.877C700.249 454.671 622.062 504.648 543.852 558.266C466.139 611.541 387.508 666.014 294.889 689.508C217.642 709.102 138.555 707.592 59.94 699.19L3.8147e-05 692.767V5.39962C301.887 5.39962 603.774 5.39962 905.661 5.39962C1056.6 5.39962 1207.55 5.39962 1358.49 5.39962C1366.41 5.39962 1440 4.54825 1440 6.38065C1440 14.3222 1440 22.2674 1440 30.2108C1440 63.3794 1440 96.548 1440 129.715C1440 169.646 1440 209.577 1440 249.51Z" fill="url(#paint0_linear_896_1705)"/>
<path d="M1440 194.347L1380.06 220.628C1319.94 246.91 1200.06 299.476 1080 314.817C959.661 330.34 839.101 308.299 720 292.654C600.824 276.861 480.112 266.797 360 277.17C239.94 287.684 120.06 318.369 59.94 333.854L3.8147e-05 349.195V5.39892C480.001 5.39892 959.999 5.39892 1440 5.39892V194.347Z" fill="url(#paint1_linear_896_1705)"/>
<path d="M1440 225.601L1380.06 216.08C1319.94 206.706 1200.06 187.667 1080 189.089C959.618 190.513 840.443 212.389 720 212.389C599.706 212.389 480.389 190.501 360 193.919C239.94 197.186 120.06 225.601 59.94 239.806L3.8147e-05 254.014V9.66005C480.001 9.66005 959.999 9.66005 1440 9.66005V225.601Z" fill="url(#paint2_linear_896_1705)"/>
<path d="M1440 122.398L1380.06 131.398C1269.1 148.009 1157.26 160.996 1044.86 157.905C908.894 154.166 774.139 131.456 638.982 117.869C426.449 96.5052 213.077 83.115 3.8147e-05 68.3982V2.47606e-06C480.001 2.47606e-06 959.999 2.47606e-06 1440 2.47606e-06V122.398Z" fill="#124FA9"/>
<defs>
<linearGradient id="paint0_linear_896_1705" x1="720" y1="5.20209" x2="720" y2="705.077" gradientUnits="userSpaceOnUse">
<stop stop-color="#74ABFB"/>
<stop offset="1" stop-color="#FDFDFD"/>
</linearGradient>
<linearGradient id="paint1_linear_896_1705" x1="720" y1="5.39893" x2="720" y2="349.195" gradientUnits="userSpaceOnUse">
<stop stop-color="#337FEE"/>
<stop offset="1" stop-color="#74ABFB"/>
</linearGradient>
<linearGradient id="paint2_linear_896_1705" x1="720" y1="9.66005" x2="720" y2="254.014" gradientUnits="userSpaceOnUse">
<stop stop-color="#124FA9"/>
<stop offset="1" stop-color="#337FEE"/>
</linearGradient>
</defs>
</svg>
