<svg width="720" height="720" viewBox="0 0 720 720" fill="none" xmlns="http://www.w3.org/2000/svg">
<circle cx="360" cy="360" r="360" fill="white"/>
<mask id="mask0_648_239" style="mask-type:alpha" maskUnits="userSpaceOnUse" x="165" y="105" width="390" height="383">
<path d="M360 105L554.856 487.5H165.144L360 105Z" fill="white"/>
</mask>
<g mask="url(#mask0_648_239)">
<rect x="142" y="403" width="435" height="85" fill="url(#paint0_linear_648_239)"/>
<rect x="150" y="105" width="435" height="85" fill="url(#paint1_linear_648_239)"/>
<rect x="142" y="204" width="435" height="85" fill="url(#paint2_linear_648_239)"/>
<rect x="142" y="304" width="435" height="85" fill="url(#paint3_linear_648_239)"/>
</g>
<path d="M217.272 563.64C217.272 560.952 216.696 558.744 215.544 557.016C214.392 555.224 212.664 553.72 210.36 552.504C208.12 551.288 205.272 550.104 201.816 548.952L192.792 545.88C190.104 544.92 187.48 543.8 184.92 542.52C182.36 541.24 180.248 539.544 178.584 537.432C176.984 535.256 176.184 532.376 176.184 528.792C176.184 525.08 177.144 521.976 179.064 519.48C180.984 516.984 183.544 515.128 186.744 513.912C189.944 512.632 193.496 511.992 197.4 511.992C202.2 511.992 206.424 512.664 210.072 514.008C213.784 515.288 216.6 516.696 218.52 518.232V522.936C217.112 521.784 215.32 520.696 213.144 519.672C211.032 518.584 208.632 517.688 205.944 516.984C203.32 516.216 200.44 515.832 197.304 515.832C191.736 515.832 187.512 517.048 184.632 519.48C181.752 521.912 180.312 524.92 180.312 528.504C180.312 531.32 181.016 533.624 182.424 535.416C183.832 537.144 185.688 538.552 187.992 539.64C190.296 540.728 192.888 541.784 195.768 542.808L202.968 545.208C205.912 546.232 208.536 547.256 210.84 548.28C213.144 549.304 215.064 550.488 216.6 551.832C218.2 553.176 219.384 554.808 220.152 556.728C220.984 558.584 221.4 560.856 221.4 563.544C221.4 567.128 220.504 570.136 218.712 572.568C216.92 575 214.488 576.856 211.416 578.136C208.344 579.352 204.792 579.96 200.76 579.96C197.56 579.96 194.456 579.64 191.448 579C188.44 578.36 185.624 577.496 183 576.408C180.44 575.256 178.168 574.04 176.184 572.76V568.344C178.168 569.688 180.44 570.968 183 572.184C185.56 573.336 188.312 574.296 191.256 575.064C194.264 575.768 197.368 576.12 200.568 576.12C206.328 576.12 210.552 574.968 213.24 572.664C215.928 570.296 217.272 567.288 217.272 563.64ZM255.974 512.952H260.006V579H255.974V512.952ZM232.07 516.792V512.952H283.91V516.792H232.07ZM350.594 512.952V551.64C350.594 557.144 349.666 562.04 347.81 566.328C346.018 570.616 343.202 573.976 339.362 576.408C335.522 578.776 330.53 579.96 324.385 579.96C318.37 579.96 313.41 578.776 309.505 576.408C305.665 573.976 302.817 570.616 300.961 566.328C299.105 562.04 298.177 557.144 298.177 551.64V512.952H302.401V551.64C302.401 556.44 303.169 560.664 304.705 564.312C306.241 567.96 308.641 570.84 311.905 572.952C315.169 575 319.329 576.024 324.385 576.024C329.57 576.024 333.762 575 336.962 572.952C340.226 570.84 342.625 567.96 344.161 564.312C345.698 560.664 346.466 556.44 346.466 551.64V512.952H350.594ZM373.687 512.952H377.815V579H373.687V512.952ZM376.375 575.16H394.327C400.727 575.16 406.295 573.944 411.031 571.512C415.767 569.08 419.447 565.688 422.071 561.336C424.759 556.984 426.103 551.896 426.103 546.072C426.103 540.184 424.759 535.064 422.071 530.712C419.447 526.296 415.767 522.872 411.031 520.44C406.295 518.008 400.727 516.792 394.327 516.792H376.375V512.952H394.327C401.495 512.952 407.767 514.328 413.143 517.08C418.583 519.768 422.775 523.608 425.719 528.6C428.727 533.528 430.231 539.352 430.231 546.072C430.231 551.064 429.367 555.576 427.639 559.608C425.975 563.64 423.543 567.096 420.343 569.976C417.207 572.856 413.431 575.096 409.015 576.696C404.599 578.232 399.703 579 394.327 579H376.375V575.16ZM450.488 512.952H454.616V579H450.488V512.952ZM508.199 579.96C503.463 579.96 499.079 579.128 495.047 577.464C491.015 575.8 487.463 573.464 484.391 570.456C481.383 567.448 479.047 563.896 477.383 559.8C475.719 555.64 474.887 551.064 474.887 546.072C474.887 541.08 475.719 536.504 477.383 532.344C479.047 528.184 481.383 524.6 484.391 521.592C487.463 518.52 491.015 516.152 495.047 514.488C499.079 512.824 503.463 511.992 508.199 511.992C512.871 511.992 517.223 512.824 521.255 514.488C525.287 516.152 528.807 518.52 531.815 521.592C534.887 524.6 537.255 528.184 538.919 532.344C540.583 536.504 541.415 541.08 541.415 546.072C541.415 551.064 540.583 555.64 538.919 559.8C537.255 563.896 534.887 567.448 531.815 570.456C528.807 573.464 525.287 575.8 521.255 577.464C517.223 579.128 512.871 579.96 508.199 579.96ZM508.199 575.832C513.703 575.832 518.631 574.584 522.983 572.088C527.399 569.528 530.855 566.008 533.351 561.528C535.911 557.048 537.191 551.896 537.191 546.072C537.191 540.184 535.911 535 533.351 530.52C530.855 525.976 527.399 522.456 522.983 519.96C518.631 517.4 513.703 516.12 508.199 516.12C502.631 516.12 497.639 517.4 493.223 519.96C488.871 522.456 485.415 525.976 482.855 530.52C480.295 535 479.015 540.184 479.015 546.072C479.015 551.896 480.295 557.048 482.855 561.528C485.415 566.008 488.871 569.528 493.223 572.088C497.639 574.584 502.631 575.832 508.199 575.832Z" fill="#2A2A2A"/>
<defs>
<linearGradient id="paint0_linear_648_239" x1="359.5" y1="403" x2="359.5" y2="488" gradientUnits="userSpaceOnUse">
<stop stop-color="#3A3A3A"/>
<stop offset="1" stop-color="#2A2A2A"/>
</linearGradient>
<linearGradient id="paint1_linear_648_239" x1="367.5" y1="190" x2="367.5" y2="105" gradientUnits="userSpaceOnUse">
<stop stop-color="#888888"/>
<stop offset="1" stop-color="#DCDCDC"/>
</linearGradient>
<linearGradient id="paint2_linear_648_239" x1="359.5" y1="289" x2="359.5" y2="204" gradientUnits="userSpaceOnUse">
<stop stop-color="#5F5F5F"/>
<stop offset="1" stop-color="#888888"/>
</linearGradient>
<linearGradient id="paint3_linear_648_239" x1="359.5" y1="304" x2="359.5" y2="389" gradientUnits="userSpaceOnUse">
<stop stop-color="#5F5F5F"/>
<stop offset="1" stop-color="#3A3A3A"/>
</linearGradient>
</defs>
</svg>
